<svg width="226" height="69" viewBox="0 0 226 69" fill="none" xmlns="http://www.w3.org/2000/svg">
<g clip-path="url(#clip0_35_856)">
<path d="M140.111 53.8677C127.068 63.482 108.161 68.6116 91.8836 68.6116C69.0595 68.6116 48.5119 60.1698 32.9669 46.1294C31.7456 45.0254 32.8399 43.5207 34.3055 44.3805C51.0816 54.1413 71.8246 60.0135 93.2515 60.0135C107.702 60.0135 123.599 57.0237 138.216 50.8193C140.424 49.8813 142.271 52.2654 140.111 53.8677Z" fill="#FF9900"/>
<path d="M145.534 47.6633C143.873 45.5333 134.513 46.6569 130.311 47.1552C129.031 47.3116 128.836 46.1977 129.989 45.3965C137.444 40.1497 149.677 41.6642 151.103 43.4229C152.53 45.1914 150.732 57.4535 143.726 63.306C142.652 64.2049 141.626 63.7262 142.104 62.5342C143.678 58.6064 147.205 49.8031 145.534 47.6633Z" fill="#FF9900"/>
<path d="M130.604 8.35616V3.2559C130.604 2.48403 131.19 1.96619 131.894 1.96619H154.728C155.461 1.96619 156.047 2.4938 156.047 3.2559V7.62336C156.037 8.35616 155.421 9.31367 154.327 10.8281L142.495 27.7215C146.892 27.614 151.533 28.2686 155.519 30.5159C156.418 31.0239 156.662 31.7665 156.731 32.4993V37.9415C156.731 38.6841 155.91 39.5537 155.05 39.1042C148.025 35.4207 138.694 35.0201 130.927 39.1433C130.135 39.5732 129.305 38.7134 129.305 37.9708V32.8022C129.305 31.9717 129.314 30.555 130.145 29.2946L143.853 9.63611H131.923C131.19 9.63611 130.604 9.11827 130.604 8.35616Z" fill="#221F1F"/>
<path d="M47.3098 40.1791H40.3629C39.6985 40.1302 39.1709 39.6319 39.1221 38.9968V3.34394C39.1221 2.63068 39.7181 2.06398 40.4606 2.06398H46.9385C47.6127 2.09328 48.1501 2.61114 48.199 3.25599V7.91657H48.326C50.0163 3.41232 53.1917 1.31165 57.4713 1.31165C61.8192 1.31165 64.5354 3.41232 66.4895 7.91657C68.1701 3.41232 71.9904 1.31165 76.0842 1.31165C78.9959 1.31165 82.1811 2.51343 84.1255 5.21011C86.3238 8.20969 85.8744 12.5674 85.8744 16.3877L85.8646 38.8894C85.8646 39.6026 85.2686 40.1791 84.5261 40.1791H77.5889C76.8952 40.1302 76.3383 39.5733 76.3383 38.8894V19.993C76.3383 18.4884 76.4751 14.7365 76.1429 13.3099C75.625 10.9162 74.0715 10.242 72.0588 10.242C70.3782 10.242 68.6195 11.3656 67.9063 13.1634C67.193 14.9612 67.2614 17.9705 67.2614 19.993V38.8894C67.2614 39.6026 66.6654 40.1791 65.9228 40.1791H58.9857C58.2822 40.1302 57.7351 39.5733 57.7351 38.8894L57.7253 19.993C57.7253 16.0164 58.3799 10.1638 53.4458 10.1638C48.453 10.1638 48.6484 15.8698 48.6484 19.993V38.8894C48.6484 39.6026 48.0524 40.1791 47.3098 40.1791Z" fill="#221F1F"/>
<path d="M175.705 1.31165C186.013 1.31165 191.592 10.1638 191.592 21.4195C191.592 32.2942 185.427 40.9216 175.705 40.9216C165.583 40.9216 160.072 32.0695 160.072 21.0385C160.072 9.93908 165.651 1.31165 175.705 1.31165ZM175.764 8.59075C170.644 8.59075 170.322 15.5669 170.322 19.9149C170.322 24.2726 170.253 33.5742 175.705 33.5742C181.089 33.5742 181.343 26.0704 181.343 21.4977C181.343 18.4884 181.216 14.8928 180.307 12.0398C179.526 9.55804 177.972 8.59075 175.764 8.59075Z" fill="#221F1F"/>
<path d="M204.959 40.1791H198.041C197.347 40.1302 196.791 39.5733 196.791 38.8894L196.781 3.22668C196.839 2.57205 197.416 2.06398 198.119 2.06398H204.558C205.164 2.09328 205.662 2.50366 205.799 3.06058V8.51258H205.926C207.87 3.63705 210.596 1.31165 215.394 1.31165C218.511 1.31165 221.549 2.43527 223.503 5.513C225.321 8.36602 225.321 13.1634 225.321 16.6124V39.0555C225.243 39.6808 224.666 40.1791 223.982 40.1791H217.016C216.381 40.1302 215.853 39.6613 215.785 39.0555V19.6901C215.785 15.7917 216.234 10.0856 211.437 10.0856C209.746 10.0856 208.193 11.219 207.421 12.9387C206.444 15.1175 206.317 17.2866 206.317 19.6901V38.8894C206.307 39.6026 205.701 40.1791 204.959 40.1791Z" fill="#221F1F"/>
<path d="M112.402 23.149V21.6443C107.379 21.6443 102.074 22.7191 102.074 28.6401C102.074 31.6396 103.628 33.6719 106.295 33.6719C108.249 33.6719 109.998 32.4701 111.102 30.516C112.47 28.1124 112.402 25.8554 112.402 23.149ZM119.407 40.0814C118.948 40.4918 118.283 40.5211 117.766 40.2475C115.46 38.3325 115.049 37.4434 113.779 35.6163C109.969 39.505 107.272 40.6677 102.328 40.6677C96.4852 40.6677 91.9321 37.0623 91.9321 29.8419C91.9321 24.2042 94.9903 20.3644 99.3382 18.4884C103.11 16.8274 108.376 16.5343 112.402 16.0751V15.1762C112.402 13.5249 112.529 11.5708 111.561 10.1443C110.711 8.86437 109.089 8.33676 107.663 8.33676C105.015 8.33676 102.65 9.69487 102.074 12.5088C101.957 13.1341 101.498 13.7497 100.872 13.779L94.1305 13.056C93.5638 12.9289 92.9385 12.4697 93.0948 11.6001C94.6484 3.43192 102.025 0.969727 108.63 0.969727C112.011 0.969727 116.427 1.86862 119.094 4.42852C122.475 7.58442 122.153 11.7955 122.153 16.378V27.2038C122.153 30.4574 123.501 31.8839 124.771 33.6426C125.221 34.2679 125.318 35.0203 124.752 35.4893C123.335 36.6715 120.814 38.8699 119.427 40.101L119.407 40.0814" fill="#221F1F"/>
<path d="M21.3298 23.1489V21.6442C16.3077 21.6442 11.0022 22.719 11.0022 28.6399C11.0022 31.6395 12.5558 33.6718 15.2231 33.6718C17.1772 33.6718 18.9262 32.47 20.0303 30.5159C21.3981 28.1123 21.3298 25.8553 21.3298 23.1489ZM28.3353 40.0813C27.8761 40.4917 27.2117 40.521 26.6938 40.2474C24.388 38.3324 23.9776 37.4433 22.7074 35.6162C18.8969 39.5049 16.2002 40.6675 11.2563 40.6675C5.41344 40.6675 0.860352 37.0622 0.860352 29.8417C0.860352 24.2041 3.91855 20.3642 8.26646 18.4883C12.0379 16.8273 17.3043 16.5342 21.3298 16.075V15.1761C21.3298 13.5248 21.4568 11.5707 20.4895 10.1442C19.6394 8.86425 18.0175 8.33664 16.591 8.33664C13.9432 8.33664 11.5787 9.69475 11.0022 12.5087C10.885 13.134 10.4258 13.7496 9.80045 13.7789L3.05874 13.0558C2.49204 12.9288 1.86672 12.4696 2.02305 11.6C3.57658 3.4318 10.9534 0.969604 17.5583 0.969604C20.9389 0.969604 25.3552 1.8685 28.0226 4.4284C31.4032 7.5843 31.0808 11.7954 31.0808 16.3778V27.2037C31.0808 30.4573 32.4292 31.8838 33.6993 33.6425C34.1488 34.2678 34.2465 35.0201 33.6798 35.4891C32.2631 36.6714 29.7422 38.8698 28.3548 40.1009L28.3353 40.0813" fill="#221F1F"/>
</g>
<defs>
<clipPath id="clip0_35_856">
<rect width="224.728" height="67.8285" fill="white" transform="translate(0.724609 0.87793)"/>
</clipPath>
</defs>
</svg>
