<svg width="144" height="141" viewBox="0 0 144 141" fill="none" xmlns="http://www.w3.org/2000/svg">
<path d="M55.0935 123.364H45.8486C44.2101 123.364 42.8818 122.036 42.8818 120.397C42.8818 118.759 44.2101 117.431 45.8486 117.431H55.0935C56.7321 117.431 58.0603 118.759 58.0603 120.397C58.0603 122.036 56.7321 123.364 55.0935 123.364Z" fill="#125E8A"/>
<path d="M59.3111 102.236L42.1298 85.0542C41.5735 84.4979 40.819 84.1852 40.0319 84.1852H17.6085C15.97 84.1852 14.6417 85.5137 14.6417 87.152C14.6417 88.7903 15.97 90.1188 17.6085 90.1188H38.8034L51.9161 103.231L44.8331 106.021C40.8279 98.7504 33.0902 93.8122 24.2189 93.8122C11.2501 93.8122 0.699219 104.363 0.699219 117.332C0.699219 130.301 11.2501 140.851 24.2189 140.851C37.1877 140.851 47.7385 130.301 47.7385 117.332C47.7385 115.334 47.4863 113.394 47.0149 111.54L58.3012 107.094C59.2316 106.727 59.9146 105.916 60.1184 104.937C60.3222 103.958 60.0184 102.943 59.3111 102.236ZM24.2186 134.918C14.5216 134.918 6.63253 127.029 6.63253 117.332C6.63253 107.635 14.5216 99.7461 24.2186 99.7461C30.5821 99.7461 36.1668 103.143 39.2546 108.22L23.1309 114.572C21.6066 115.172 20.8575 116.895 21.458 118.42C21.9181 119.588 23.036 120.3 24.2192 120.3C24.5808 120.3 24.9487 120.233 25.3059 120.093L41.4341 113.739C41.6758 114.899 41.8046 116.101 41.8046 117.332C41.8046 127.029 33.9156 134.918 24.2186 134.918Z" fill="#125E8A"/>
<path d="M120.288 93.8124C119.403 93.8124 118.531 93.8658 117.671 93.9614L116.911 90.8281C117.553 90.74 118.2 90.6739 118.85 90.6376C123.305 90.3873 127.79 91.3473 131.82 93.4107C133.279 94.1581 135.066 93.5807 135.813 92.1223C136.56 90.6641 135.982 88.8766 134.524 88.1295C129.558 85.587 124.023 84.4047 118.518 84.7135C117.507 84.7702 116.502 84.8803 115.506 85.0378L111.078 66.7837C110.877 65.9568 110.331 65.256 109.579 64.8591L100.373 60.0009C100.346 59.987 100.319 59.9766 100.292 59.9636C100.016 58.0242 98.4873 56.4224 96.45 56.1477L84.0405 54.472L72.2284 35.5918C72.1169 35.415 71.9914 35.2332 71.862 35.064C70.7234 33.3003 69.0789 31.8786 67.1092 31.0236C75.2721 30.8286 81.8326 24.1536 81.8326 15.9424C81.8326 7.60715 75.0763 0.85144 66.7431 0.85144C58.4081 0.85144 51.6518 7.60715 51.6518 15.9424C51.6518 22.5308 55.8763 28.1297 61.763 30.1875C56.7758 30.6779 52.6567 34.6211 52.1283 39.7991L51.9384 41.6599C51.9384 41.6599 50.1462 54.1649 42.0705 70.6645C39.8119 75.7731 41.5472 80.5941 44.7294 84.1371C46.8085 86.361 49.9978 87.8073 54.0748 88.5612L72.3993 92.3542L60.0268 118.335C58.7971 120.91 59.6676 124.054 62.1431 125.605C64.8067 127.274 68.3194 126.469 69.9888 123.805L90.8967 90.4469C91.3157 89.7725 91.6548 88.9932 91.85 88.1785C92.8326 84.0864 90.3108 79.9726 86.2193 78.9906L85.6597 78.8565L68.9305 74.8415C69.0391 74.4858 69.1515 74.1173 69.2705 73.7313C69.5171 72.8668 69.8004 71.9385 70.0674 70.9437C70.3362 69.9501 70.624 68.907 70.8892 67.8099C71.0239 67.2634 71.1607 66.7074 71.2995 66.1449C71.428 65.5762 71.5573 65 71.6882 64.4194C71.9602 63.2692 72.1801 62.0555 72.4198 60.864C72.5844 60.0244 72.7242 59.1688 72.863 58.3188L76.2312 62.7016L76.6205 63.209C77.49 64.3265 78.8462 65.0469 80.372 65.0507L95.8389 65.0306C96.2631 65.0321 96.6755 64.984 97.0686 64.8855C97.2309 65.0229 97.4086 65.146 97.6041 65.2492L105.628 69.4828L109.763 86.5271C103.039 88.973 97.1638 93.6973 93.4571 99.9095C92.6175 101.317 93.0782 103.138 94.4845 103.977C94.9613 104.262 95.4846 104.397 96.002 104.397C97.0125 104.397 97.9972 103.881 98.5529 102.95C101.447 98.0986 105.972 94.3669 111.17 92.329L111.906 95.362C103.065 98.7465 96.7692 107.316 96.7692 117.331C96.7692 117.678 96.7802 118.021 96.7953 118.364H78.1867C76.5484 118.364 75.2198 119.692 75.2198 121.331C75.2198 122.969 76.5484 124.298 78.1867 124.298H97.7676C97.7857 124.298 97.8029 124.295 97.821 124.295C100.796 133.875 109.743 140.851 120.288 140.851C133.257 140.851 143.808 130.3 143.808 117.331C143.808 104.363 133.257 93.8124 120.288 93.8124ZM120.288 134.918C110.591 134.918 102.702 127.028 102.702 117.332C102.702 110.11 107.079 103.893 113.319 101.189L117.405 118.032C117.734 119.389 118.948 120.3 120.286 120.3C120.517 120.3 120.752 120.272 120.987 120.216C122.579 119.829 123.557 118.225 123.171 116.633L119.085 99.7923C119.483 99.765 119.883 99.7466 120.288 99.7466C129.985 99.7466 137.874 107.636 137.874 117.332C137.874 127.029 129.984 134.918 120.288 134.918Z" fill="#125E8A"/>
</svg>
