<svg width="97" height="97" viewBox="0 0 97 97" fill="none" xmlns="http://www.w3.org/2000/svg">
<g clip-path="url(#clip0_132_572)">
<path d="M71.2371 45.4178H27.4569C23.7483 45.4178 20.73 48.4377 20.73 52.1513C20.73 55.8649 23.7481 58.8847 27.4569 58.8847H71.2371C74.9457 58.8847 77.964 55.8649 77.964 52.1513C77.964 48.4377 74.9459 45.4178 71.2371 45.4178ZM71.2371 55.518H27.4569C25.6042 55.518 24.0967 54.0073 24.0967 52.1513C24.0967 50.2952 25.6042 48.7846 27.4569 48.7846H71.2371C73.0898 48.7846 74.5973 50.2952 74.5973 52.1513C74.5973 54.0073 73.0898 55.518 71.2371 55.518Z" fill="#C1DBE4"/>
<path d="M95.968 22.3027L82.5447 7.20973C82.2258 6.84973 81.8107 6.70093 81.3307 6.70093L17.3633 6.70093C16.9161 6.70093 16.4887 6.8218 16.1731 7.13739L0.935795 22.2587C0.620206 22.5743 0.355591 22.9734 0.355591 23.4206L0.355591 33.5207C0.355591 34.4512 1.28268 35.3179 2.21314 35.3179H5.40557L5.40557 89.0713C5.40557 90.0018 6.33266 90.8685 7.26313 90.8685H91.4307C92.3612 90.8685 92.9399 90.0018 92.9399 89.0713V35.3178H94.7974C95.7279 35.3178 96.3066 34.451 96.3066 33.5205V23.4204C96.3066 23.0079 96.2425 22.6101 95.968 22.3027ZM89.5732 87.5016H8.77229L8.77229 35.3178H89.5732V87.5016ZM92.9399 31.951H91.4307L7.26331 31.951H3.72231L3.72231 24.1175L18.0604 10.0676L80.5746 10.0676L92.9399 24.06V31.951V31.951Z" fill="#C1DBE4"/>
</g>
<defs>
<clipPath id="clip0_132_572">
<rect width="95.951" height="95.951" fill="white" transform="translate(0.355591 0.809082)"/>
</clipPath>
</defs>
</svg>
