<svg width="134" height="134" viewBox="0 0 134 134" fill="none" xmlns="http://www.w3.org/2000/svg">
<g clip-path="url(#clip0_29_722)">
<path d="M67.2538 3.97986C30.6147 3.97986 0.806331 30.8069 0.806331 63.7826C0.806331 75.3113 4.4543 86.4767 11.3671 96.1293C10.058 110.608 6.54961 121.357 1.4553 126.449C0.781967 127.123 0.613633 128.153 1.0389 129.003C1.41765 129.763 2.19065 130.23 3.02125 130.23C3.12313 130.23 3.22724 130.223 3.33134 130.208C4.22838 130.082 25.0663 127.081 40.1366 118.385C48.6973 121.838 57.8139 123.585 67.2538 123.585C103.893 123.585 133.701 96.7583 133.701 63.7826C133.701 30.8069 103.893 3.97986 67.2538 3.97986ZM36.245 43.8816H69.4688C70.6914 43.8816 71.6837 44.8739 71.6837 46.0965C71.6837 47.3191 70.6914 48.3114 69.4688 48.3114H36.245C35.0224 48.3114 34.0301 47.3191 34.0301 46.0965C34.0301 44.8739 35.0224 43.8816 36.245 43.8816ZM98.2627 83.7501H36.245C35.0224 83.7501 34.0301 82.7578 34.0301 81.5352C34.0301 80.3125 35.0224 79.3203 36.245 79.3203H98.2627C99.4853 79.3203 100.478 80.3125 100.478 81.5352C100.478 82.7578 99.4853 83.7501 98.2627 83.7501ZM98.2627 66.0308H36.245C35.0224 66.0308 34.0301 65.0385 34.0301 63.8158C34.0301 62.5932 35.0224 61.6009 36.245 61.6009H98.2627C99.4853 61.6009 100.478 62.5932 100.478 63.8158C100.478 65.0385 99.4853 66.0308 98.2627 66.0308Z" fill="#125E8A"/>
</g>
<defs>
<clipPath id="clip0_29_722">
<rect width="132.895" height="132.895" fill="white" transform="translate(0.806152 0.657471)"/>
</clipPath>
</defs>
</svg>
