<svg width="170" height="68" viewBox="0 0 170 68" fill="none" xmlns="http://www.w3.org/2000/svg">
<g clip-path="url(#clip0_193_574)">
<path d="M21.9099 14.8305C9.9897 14.8305 0.0566406 19.8876 0.0566406 35.1448C0.0566406 47.2318 6.73591 54.8434 22.2177 54.8434C40.4404 54.8434 41.6085 42.8396 41.6085 42.8396H32.7788C32.7788 42.8396 30.8856 49.3032 21.679 49.3032C14.1805 49.3032 8.78731 44.2377 8.78731 37.1378H42.5319V32.6824C42.5319 25.6583 38.0729 14.8305 21.9099 14.8305V14.8305ZM21.6021 20.5247C28.7399 20.5247 33.606 24.8974 33.606 31.4513H8.98261C8.98261 24.4936 15.3341 20.5247 21.6021 20.5247V20.5247Z" fill="#E53238"/>
<path d="M42.5254 0.0563965V47.1813C42.5254 49.8562 42.3345 53.6122 42.3345 53.6122H50.7562C50.7562 53.6122 51.0585 50.9146 51.0585 48.4493C51.0585 48.4493 55.2194 54.9588 66.5332 54.9588C78.447 54.9588 86.5396 46.6874 86.5396 34.8369C86.5396 23.8125 79.1063 14.9458 66.5524 14.9458C54.7966 14.9458 51.1436 21.294 51.1436 21.294V0.0563965H42.5254ZM64.3786 20.7746C72.469 20.7746 77.6137 26.7791 77.6137 34.8369C77.6137 43.4773 71.6718 49.13 64.4363 49.13C55.8014 49.13 51.1436 42.3879 51.1436 34.9138C51.1436 27.9495 55.3232 20.7746 64.3786 20.7746Z" fill="#0064D2"/>
<path d="M107.469 14.8305C89.5365 14.8305 88.3863 24.6497 88.3863 26.2188H97.3123C97.3123 26.2188 97.7804 20.4862 106.854 20.4862C112.75 20.4862 117.319 23.1849 117.319 28.3733V30.2201H106.854C92.9609 30.2201 85.6162 34.2843 85.6162 42.5318C85.6162 50.6484 92.4025 55.0647 101.573 55.0647C114.072 55.0647 118.098 48.1586 118.098 48.1586C118.098 50.9055 118.31 53.6123 118.31 53.6123H126.245C126.245 53.6123 125.937 50.2571 125.937 48.1105V29.5564C125.937 17.3908 116.124 14.8305 107.469 14.8305V14.8305ZM117.319 35.7604V38.2227C117.319 41.4342 115.337 49.4186 103.67 49.4186C97.2814 49.4186 94.5422 46.2302 94.5422 42.5318C94.5422 35.8037 103.767 35.7604 117.319 35.7604V35.7604Z" fill="#F5AF02"/>
<path d="M121.131 16.371H131.173L145.584 45.243L159.962 16.371H169.058L142.869 67.7723H133.327L140.884 53.4435L121.131 16.371Z" fill="#86B817"/>
</g>
<defs>
<clipPath id="clip0_193_574">
<rect width="169.114" height="67.8285" fill="white"/>
</clipPath>
</defs>
</svg>
