<svg width="83" height="69" viewBox="0 0 83 69" fill="none" xmlns="http://www.w3.org/2000/svg">
<g clip-path="url(#clip0_40_925)">
<path d="M22.0739 15.7084C10.1538 15.7084 0.220703 20.7655 0.220703 36.0226C0.220703 48.1096 6.89997 55.7213 22.3817 55.7213C40.6045 55.7213 41.7726 43.7174 41.7726 43.7174H32.9428C32.9428 43.7174 31.0497 50.1811 21.8431 50.1811C14.3446 50.1811 8.95137 45.1156 8.95137 38.0156H42.696V33.5603C42.696 26.5362 38.237 15.7084 22.0739 15.7084ZM21.7661 21.4025C28.9039 21.4025 33.77 25.7753 33.77 32.3291H9.14667C9.14667 25.3714 15.4982 21.4025 21.7661 21.4025Z" fill="#E53238"/>
<path d="M42.6895 0.934326V48.0592C42.6895 50.7342 42.4985 54.4901 42.4985 54.4901H50.9203C50.9203 54.4901 51.2226 51.7925 51.2226 49.3272C51.2226 49.3272 55.3835 55.8367 66.6972 55.8367C78.6111 55.8367 86.7037 47.5653 86.7037 35.7148C86.7037 24.6905 79.2704 15.8238 66.7165 15.8238C54.9606 15.8238 51.3076 22.172 51.3076 22.172V0.934326H42.6895ZM64.5427 21.6526C72.6331 21.6526 77.7777 27.6571 77.7777 35.7148C77.7777 44.3553 71.8359 50.0079 64.6004 50.0079C55.9655 50.0079 51.3076 43.2658 51.3076 35.7918C51.3076 28.8274 55.4873 21.6526 64.5427 21.6526Z" fill="#0064D2"/>
</g>
<defs>
<clipPath id="clip0_40_925">
<rect width="169.114" height="67.8285" fill="white" transform="translate(0.164062 0.87793)"/>
</clipPath>
</defs>
</svg>
