<svg width="135" height="69" viewBox="0 0 135 69" fill="none" xmlns="http://www.w3.org/2000/svg">
<path d="M19.6721 10.2868V26.6966C19.6721 26.6966 25.4543 26.6966 28.5489 26.4617C30.9825 26.0356 31.4304 25.8007 31.8784 23.3671L32.7743 19.8027H35.4209L34.973 27.5925L35.2079 35.5734H32.5394L31.8784 32.4569C31.2174 30.2391 30.3215 29.7884 28.5489 29.5754C26.3311 29.3405 19.6721 29.3405 19.6721 29.3405V43.1036C19.6721 45.7503 21.0159 46.8811 24.1105 46.8811H33.4352C36.3168 46.8811 39.1956 46.6462 40.9901 42.4427L43.4018 37.1084H45.6415C45.4066 38.2173 44.2977 47.99 44.0847 50.1887C44.0847 50.1887 35.6558 49.9757 32.1133 49.9757H16.1296L6.5918 50.1887V47.7769L9.68639 47.0941C11.9261 46.6462 12.5871 45.9852 12.5871 44.2126C12.5871 44.2126 12.8219 38.2173 12.8219 28.2289C12.8219 18.265 12.5871 12.267 12.5871 12.267C12.5871 10.2813 11.9261 9.83339 9.68639 9.38545L6.5918 8.72994V6.29633L15.9165 6.48752H33.6701C37.2127 6.48752 43.1861 5.84839 43.1861 5.84839C43.1861 5.84839 42.973 9.60396 42.7381 18.4808H40.3045L39.4086 15.3643C38.5346 11.3739 37.2099 9.38818 34.7572 9.38818H20.8029C19.6721 9.39092 19.6721 9.60396 19.6721 10.2868ZM55.6054 12.0376H58.2739V21.3623L67.3856 20.9144L66.9377 25.1397L58.0609 24.4569V40.8885C58.0609 45.54 59.6177 47.3317 62.2862 47.3317C64.698 47.3317 66.4897 45.9879 67.1507 44.879L68.4727 46.4359C67.1507 49.5304 63.3951 51.0873 59.8307 51.0873C55.4142 51.0873 51.828 48.4407 51.828 43.3413V24.6891H46.5347V22.4712C50.9758 22.0233 54.2834 19.3548 55.6054 12.0376ZM74.7028 40.6509L76.4727 44.8763C77.1337 46.6462 78.6905 48.4407 82.2331 48.4407C86.0105 48.4407 87.5673 46.4359 87.5673 44.0023C87.5673 36.4474 72.6953 38.668 72.6953 28.4665C72.6953 22.7061 77.3467 20.0158 83.342 20.0158C86.0105 20.0158 90.0009 20.4637 92.0057 21.3596C91.5578 23.5774 91.3229 26.459 91.3229 28.6795L89.1242 28.8926L87.5673 24.4542C87.1194 23.3671 85.3277 22.4685 83.1289 22.4685C80.4604 22.4685 77.7947 23.5774 77.7947 26.459C77.7947 33.331 93.1147 31.7932 93.1147 41.9947C93.1147 47.7769 88.0153 50.8715 81.7851 50.8715C77.1337 50.8715 72.4604 49.0798 72.4604 49.0798C72.9083 46.4331 72.6953 43.5543 72.4604 40.6509H74.7028ZM92.0085 61.947C92.6694 59.5134 93.1174 56.4216 93.5653 53.5182L95.9989 53.3051L96.8948 57.9566C97.1078 59.0655 97.7688 59.9614 99.5415 59.9614C102.423 59.9614 106.2 58.1915 109.762 51.9804C108.183 48.203 103.532 36.0186 99.3066 26.6939C98.1976 24.2411 97.9846 24.0253 96.4469 23.5774L95.3161 23.1513V20.9116L101.994 21.1465L110.188 20.6986V22.9192L108.183 23.3671C106.627 23.5801 105.985 24.4542 105.985 25.3528C105.985 25.5877 105.985 25.8007 106.198 26.2486C106.624 27.5925 110.188 37.5591 112.857 44.2153C115.055 39.5639 119.281 29.1302 119.942 27.3576C120.177 26.4617 120.39 26.2486 120.39 25.5877C120.39 24.4569 119.729 23.7959 118.191 23.3698L116.612 22.9192V20.7013L122.842 20.9144L128.603 20.7013V22.9192L127.494 23.7932C125.276 24.6891 125.041 24.9021 124.164 26.6939L114.414 49.525C108.631 62.6271 102.636 63.7361 98.4298 63.7361C95.764 63.7388 93.7592 63.056 92.0085 61.947Z" fill="#F45800"/>
</svg>
