<svg width="25" height="26" viewBox="0 0 25 26" fill="none" xmlns="http://www.w3.org/2000/svg">
<g clip-path="url(#clip0_13_28)">
<path d="M25 13.3879C25 6.48247 19.4008 0.887939 12.5 0.887939C5.59453 0.887939 0 6.48247 0 13.3879C0 19.6254 4.56953 24.7973 10.5469 25.734V17.002H7.37266V13.3887H10.5469V10.6333C10.5469 7.50122 12.4102 5.77153 15.2664 5.77153C16.6344 5.77153 18.0664 6.01528 18.0664 6.01528V9.09107H16.4875C14.9375 9.09107 14.4531 10.0559 14.4531 11.0442V13.3879H17.9195L17.3625 17.0012H14.4531V25.7333C20.4258 24.7965 25 19.6247 25 13.3872V13.3879Z" fill="#125E8A"/>
</g>
<defs>
<clipPath id="clip0_13_28">
<rect width="25" height="25" fill="white" transform="translate(0 0.887939)"/>
</clipPath>
</defs>
</svg>
