<svg width="338" height="450" viewBox="0 0 338 450" fill="none" xmlns="http://www.w3.org/2000/svg">
<path d="M266.519 168.75L334.585 66.651C342.892 54.1907 333.959 37.5003 318.985 37.5003H37.7347V18.7497C37.7347 8.39443 29.3394 0 18.9841 0C8.62881 0 0.234375 8.39443 0.234375 18.7497V56.25V281.25V431.25C0.234375 441.606 8.62881 450 18.9841 450C29.3394 450 37.7338 441.606 37.7338 431.25V300H318.984C333.959 300 342.892 283.309 334.584 270.849L266.519 168.75ZM37.7347 262.5V74.9997H283.95L228.384 158.349C224.185 164.647 224.185 172.852 228.384 179.15L283.95 262.499H37.7347V262.5Z" fill="white" fill-opacity="0.45"/>
</svg>
