<svg width="136" height="142" viewBox="0 0 136 142" fill="none" xmlns="http://www.w3.org/2000/svg">
<path d="M99.8386 25.237C104.102 25.237 108.393 23.5709 111.66 20.2676C113.598 18.2856 117.003 18.2856 118.969 20.2676C121.211 22.5656 124.865 22.5656 127.135 20.2676C129.378 17.9697 129.378 14.2642 127.135 11.9662C123.979 8.74908 119.799 6.99689 115.314 6.99689C110.857 6.99689 106.649 8.77781 103.521 11.9662C101.5 14.0057 98.2329 14.0057 96.212 11.9662C93.9696 9.66827 90.3152 9.66827 88.0451 11.9662C85.8027 14.2642 85.8027 17.9697 88.0451 20.2676C91.2842 23.5709 95.5476 25.237 99.8386 25.237Z" fill="#125E8A"/>
<path d="M86.2728 51.8936H10.833V79.4116H86.2728V51.8936Z" fill="#125E8A"/>
<path d="M117.25 38.7091V79.3831H128.794V38.7091C128.794 35.4632 126.22 32.8493 123.036 32.8493C119.825 32.8493 117.25 35.492 117.25 38.7091Z" fill="#125E8A"/>
<path d="M0.17334 91.1306L3.74462 122.067C4.99041 132.982 14.2923 141.226 25.3661 141.226H98.7849C107.284 141.226 115.063 136.286 118.579 128.616L135.827 91.1306H0.17334Z" fill="#125E8A"/>
<path d="M74.5058 6.33625C74.5058 3.09037 71.9312 0.47644 68.7475 0.47644H27.9961C24.8124 0.47644 22.2378 3.09037 22.2378 6.33625V40.1738H74.5058V6.33625Z" fill="#125E8A"/>
</svg>
