<svg width="423" height="423" viewBox="0 0 423 423" fill="none" xmlns="http://www.w3.org/2000/svg">
<g clip-path="url(#clip0_132_573)">
<path d="M55.5768 99.6587L21.8932 225.988L73.5313 239.757L107.215 113.427L55.5768 99.6587Z" fill="#8A716A"/>
<path d="M143.37 104.016L138.633 106.772C132.73 110.174 125.601 111.077 119.091 109.269L110.686 106.948C110.181 106.66 109.682 106.453 109.188 106.326L57.4788 92.5679C53.6093 91.5455 49.5684 93.8483 48.546 97.7177L14.7992 224.117C14.2852 226.011 14.5866 228.011 15.5088 229.643C16.4311 231.276 18.0545 232.536 19.949 233.05L71.5777 246.813C72.3987 246.998 73.2141 247.103 73.9379 247.052C76.9936 246.838 79.6731 244.712 80.5105 241.663L112.345 122.59L115.147 123.363C125.446 126.199 136.659 124.768 145.983 119.429L150.719 116.674C156.542 113.277 163.591 112.38 170.095 114.107L265.045 139.548C264.35 143.475 262.741 148.194 259.377 150.934C255.628 153.944 249.757 154.354 241.852 152.24L199.529 140.978C197.555 140.469 195.475 140.776 193.773 141.865C192.072 142.954 190.903 144.732 190.475 146.702C190.412 146.949 186.198 168.738 168.63 179.825C157.564 186.821 143.267 188.063 126.061 183.529C122.192 182.507 118.151 184.809 117.128 188.679C116.106 192.548 118.409 196.589 122.278 197.612C132.158 200.234 141.363 201.287 149.807 200.697C159.617 200.011 168.472 197.21 176.365 192.213C192.076 182.307 199.446 166.357 202.664 156.92L237.989 166.329C250.59 169.73 260.838 168.367 268.411 162.262C280.579 152.522 279.968 134.545 279.992 133.735C279.848 130.513 277.64 127.839 274.592 127.002L173.792 99.9495C163.665 97.2637 152.538 98.7691 143.37 104.016ZM68.3567 230.796L30.8106 220.816L60.6998 108.585L98.2459 118.565L68.3567 230.796Z" fill="#125E8A"/>
<path d="M289.08 107.705L354.592 220.842L400.836 194.064L335.324 80.9268L289.08 107.705Z" fill="#3C92CA"/>
<path d="M345.561 219.735L329.385 236.866C314.711 252.357 297.869 265.736 279.383 276.403L190.768 327.69C186.888 329.981 181.864 328.636 179.567 324.675C177.276 320.795 178.621 315.772 182.582 313.475L183.668 312.833L232.132 284.798C235.627 282.776 236.851 278.326 234.829 274.832C232.806 271.337 228.357 270.112 224.862 272.135L176.399 300.17L152.015 314.319C148.135 316.611 143.111 315.265 140.814 311.304C139.714 309.442 139.396 307.202 139.979 305.141C140.557 302.999 141.892 301.29 143.754 300.19L162.16 289.529L214.814 259.019C218.309 256.997 219.533 252.548 217.511 249.053C215.489 245.558 211.04 244.334 207.545 246.356L154.816 276.952L152.798 278.143L127.638 292.751C125.776 293.851 123.535 294.169 121.474 293.586C119.333 293.009 117.623 291.674 116.524 289.811C114.232 285.931 115.578 280.908 119.538 278.611L128.235 273.558L146.02 263.264L150.993 260.411L191.84 236.707C195.335 234.684 196.559 230.235 194.537 226.74C192.515 223.245 188.065 222.021 184.57 224.043L140.303 249.684L120.966 260.895C117.08 263.106 112.063 261.841 109.765 257.88C108.666 256.018 108.347 253.777 108.93 251.716C109.508 249.575 110.843 247.865 112.705 246.765L146.488 227.191C149.983 225.169 151.207 220.72 149.185 217.225C147.163 213.73 142.714 212.506 139.219 214.528L105.436 234.102C100.153 237.138 96.3785 242.089 94.8478 247.933C93.3171 253.778 94.0717 259.947 97.1078 265.23C99.0327 268.489 101.642 271.135 104.683 273.023C100.084 280.052 99.438 289.309 103.941 297.075C106.977 302.358 111.927 306.133 117.772 307.663C120.241 308.299 122.681 308.532 125.093 308.363C125.266 311.988 126.243 315.556 128.162 318.735C132.665 326.5 141.113 330.597 149.476 330.012C152.853 329.776 156.18 328.816 159.284 326.982L164.256 324.13C164.689 326.847 165.598 329.45 166.984 331.939C171.487 339.705 179.935 343.801 188.298 343.216C191.675 342.98 195.002 342.02 198.106 340.187L286.721 288.9C306.449 277.5 324.366 263.318 340.018 246.789L359.203 226.458L404.556 200.176C408.051 198.153 409.275 193.704 407.253 190.209L341.656 77.2215C340.648 75.5143 339.11 74.3289 337.216 73.8149C335.321 73.3009 333.322 73.6023 331.69 74.5245L285.399 101.276C281.904 103.299 280.68 107.748 282.702 111.243L345.561 219.735ZM332.67 90.8599L390.854 191.437L357.227 210.92L299.043 110.342L332.67 90.8599Z" fill="#125E8A"/>
</g>
<defs>
<clipPath id="clip0_132_573">
<rect width="395" height="395" fill="white" transform="translate(0.704224 28.2581) rotate(-4)"/>
</clipPath>
</defs>
</svg>
