<svg width="451" height="451" viewBox="0 0 451 451" fill="none" xmlns="http://www.w3.org/2000/svg">
<path d="M225.5 0.922852C101.435 0.922852 0.5 101.854 0.5 225.911C0.5 349.97 101.435 450.9 225.5 450.9C349.565 450.9 450.5 349.97 450.5 225.911C450.5 101.854 349.565 0.922852 225.5 0.922852ZM225.5 409.992C123.992 409.992 41.4091 327.414 41.4091 225.912C41.4091 124.41 123.992 41.8319 225.5 41.8319C327.008 41.8319 409.591 124.41 409.591 225.911C409.591 327.416 327.008 409.992 225.5 409.992Z" fill="white" fill-opacity="0.45"/>
<path d="M225.499 178.196C214.203 178.196 205.045 187.354 205.045 198.65V334.991C205.045 346.287 214.203 355.445 225.499 355.445C236.796 355.445 245.954 346.287 245.954 334.991V198.65C245.954 187.355 236.796 178.196 225.499 178.196Z" fill="white" fill-opacity="0.45"/>
<path d="M225.499 96.3813C220.113 96.3813 214.848 98.5632 211.031 102.368C207.227 106.172 205.045 111.45 205.045 116.836C205.045 122.222 207.227 127.486 211.031 131.304C214.836 135.109 220.113 137.29 225.499 137.29C230.886 137.29 236.149 135.109 239.966 131.304C243.771 127.486 245.954 122.222 245.954 116.836C245.954 111.45 243.771 106.172 239.966 102.368C236.149 98.5618 230.886 96.3813 225.499 96.3813Z" fill="white" fill-opacity="0.45"/>
</svg>
