<svg width="25" height="26" viewBox="0 0 25 26" fill="none" xmlns="http://www.w3.org/2000/svg">
<path d="M12.4997 10.9021C11.1294 10.9021 10.0136 12.0173 10.0136 13.3877C10.0136 14.7585 11.1294 15.8743 12.4997 15.8743C13.8706 15.8743 14.9858 14.7585 14.9858 13.3877C14.9858 12.0173 13.8706 10.9021 12.4997 10.9021ZM12.4997 10.9021C11.1294 10.9021 10.0136 12.0173 10.0136 13.3877C10.0136 14.7585 11.1294 15.8743 12.4997 15.8743C13.8706 15.8743 14.9858 14.7585 14.9858 13.3877C14.9858 12.0173 13.8706 10.9021 12.4997 10.9021ZM16.6414 6.84871H8.35857C7.03651 6.84871 5.96077 7.92445 5.96077 9.24651V17.5294C5.96077 18.8514 7.03651 19.9272 8.35857 19.9272H16.6414C17.9635 19.9272 19.0392 18.8514 19.0392 17.5294V9.24651C19.0392 7.92445 17.9635 6.84871 16.6414 6.84871ZM12.4997 17.6934C10.1261 17.6934 8.19454 15.7619 8.19454 13.3877C8.19454 11.014 10.1261 9.08248 12.4997 9.08248C14.8739 9.08248 16.8055 11.014 16.8055 13.3877C16.8055 15.7619 14.8739 17.6934 12.4997 17.6934ZM16.9437 9.97281C16.382 9.97281 15.925 9.51585 15.925 8.95412C15.925 8.39238 16.382 7.93542 16.9437 7.93542C17.5054 7.93542 17.9624 8.39238 17.9624 8.95412C17.9624 9.51585 17.5054 9.97281 16.9437 9.97281ZM12.4997 10.9021C11.1294 10.9021 10.0136 12.0173 10.0136 13.3877C10.0136 14.7585 11.1294 15.8743 12.4997 15.8743C13.8706 15.8743 14.9858 14.7585 14.9858 13.3877C14.9858 12.0173 13.8706 10.9021 12.4997 10.9021ZM16.6414 6.84871H8.35857C7.03651 6.84871 5.96077 7.92445 5.96077 9.24651V17.5294C5.96077 18.8514 7.03651 19.9272 8.35857 19.9272H16.6414C17.9635 19.9272 19.0392 18.8514 19.0392 17.5294V9.24651C19.0392 7.92445 17.9635 6.84871 16.6414 6.84871ZM12.4997 17.6934C10.1261 17.6934 8.19454 15.7619 8.19454 13.3877C8.19454 11.014 10.1261 9.08248 12.4997 9.08248C14.8739 9.08248 16.8055 11.014 16.8055 13.3877C16.8055 15.7619 14.8739 17.6934 12.4997 17.6934ZM16.9437 9.97281C16.382 9.97281 15.925 9.51585 15.925 8.95412C15.925 8.39238 16.382 7.93542 16.9437 7.93542C17.5054 7.93542 17.9624 8.39238 17.9624 8.95412C17.9624 9.51585 17.5054 9.97281 16.9437 9.97281ZM12.4997 10.9021C11.1294 10.9021 10.0136 12.0173 10.0136 13.3877C10.0136 14.7585 11.1294 15.8743 12.4997 15.8743C13.8706 15.8743 14.9858 14.7585 14.9858 13.3877C14.9858 12.0173 13.8706 10.9021 12.4997 10.9021ZM12.5 0.887939C5.59644 0.887939 0 6.48438 0 13.3879C0 20.2915 5.59644 25.8879 12.5 25.8879C19.4036 25.8879 25 20.2915 25 13.3879C25 6.48438 19.4036 0.887939 12.5 0.887939ZM20.8583 17.5294C20.8583 19.8548 18.9668 21.7462 16.6414 21.7462H8.35857C6.03318 21.7462 4.14171 19.8548 4.14171 17.5294V9.24651C4.14171 6.92112 6.03318 5.02965 8.35857 5.02965H16.6414C18.9668 5.02965 20.8583 6.92112 20.8583 9.24651V17.5294ZM16.6414 6.84871H8.35857C7.03651 6.84871 5.96077 7.92445 5.96077 9.24651V17.5294C5.96077 18.8514 7.03651 19.9272 8.35857 19.9272H16.6414C17.9635 19.9272 19.0392 18.8514 19.0392 17.5294V9.24651C19.0392 7.92445 17.9635 6.84871 16.6414 6.84871ZM12.4997 17.6934C10.1261 17.6934 8.19454 15.7619 8.19454 13.3877C8.19454 11.014 10.1261 9.08248 12.4997 9.08248C14.8739 9.08248 16.8055 11.014 16.8055 13.3877C16.8055 15.7619 14.8739 17.6934 12.4997 17.6934ZM16.9437 9.97281C16.382 9.97281 15.925 9.51585 15.925 8.95412C15.925 8.39238 16.382 7.93542 16.9437 7.93542C17.5054 7.93542 17.9624 8.39238 17.9624 8.95412C17.9624 9.51585 17.5054 9.97281 16.9437 9.97281ZM12.4997 10.9021C11.1294 10.9021 10.0136 12.0173 10.0136 13.3877C10.0136 14.7585 11.1294 15.8743 12.4997 15.8743C13.8706 15.8743 14.9858 14.7585 14.9858 13.3877C14.9858 12.0173 13.8706 10.9021 12.4997 10.9021ZM12.4997 10.9021C11.1294 10.9021 10.0136 12.0173 10.0136 13.3877C10.0136 14.7585 11.1294 15.8743 12.4997 15.8743C13.8706 15.8743 14.9858 14.7585 14.9858 13.3877C14.9858 12.0173 13.8706 10.9021 12.4997 10.9021ZM12.4997 10.9021C11.1294 10.9021 10.0136 12.0173 10.0136 13.3877C10.0136 14.7585 11.1294 15.8743 12.4997 15.8743C13.8706 15.8743 14.9858 14.7585 14.9858 13.3877C14.9858 12.0173 13.8706 10.9021 12.4997 10.9021ZM16.6414 6.84871H8.35857C7.03651 6.84871 5.96077 7.92445 5.96077 9.24651V17.5294C5.96077 18.8514 7.03651 19.9272 8.35857 19.9272H16.6414C17.9635 19.9272 19.0392 18.8514 19.0392 17.5294V9.24651C19.0392 7.92445 17.9635 6.84871 16.6414 6.84871ZM12.4997 17.6934C10.1261 17.6934 8.19454 15.7619 8.19454 13.3877C8.19454 11.014 10.1261 9.08248 12.4997 9.08248C14.8739 9.08248 16.8055 11.014 16.8055 13.3877C16.8055 15.7619 14.8739 17.6934 12.4997 17.6934ZM16.9437 9.97281C16.382 9.97281 15.925 9.51585 15.925 8.95412C15.925 8.39238 16.382 7.93542 16.9437 7.93542C17.5054 7.93542 17.9624 8.39238 17.9624 8.95412C17.9624 9.51585 17.5054 9.97281 16.9437 9.97281ZM12.4997 10.9021C11.1294 10.9021 10.0136 12.0173 10.0136 13.3877C10.0136 14.7585 11.1294 15.8743 12.4997 15.8743C13.8706 15.8743 14.9858 14.7585 14.9858 13.3877C14.9858 12.0173 13.8706 10.9021 12.4997 10.9021ZM12.4997 10.9021C11.1294 10.9021 10.0136 12.0173 10.0136 13.3877C10.0136 14.7585 11.1294 15.8743 12.4997 15.8743C13.8706 15.8743 14.9858 14.7585 14.9858 13.3877C14.9858 12.0173 13.8706 10.9021 12.4997 10.9021ZM12.4997 10.9021C11.1294 10.9021 10.0136 12.0173 10.0136 13.3877C10.0136 14.7585 11.1294 15.8743 12.4997 15.8743C13.8706 15.8743 14.9858 14.7585 14.9858 13.3877C14.9858 12.0173 13.8706 10.9021 12.4997 10.9021ZM16.6414 6.84871H8.35857C7.03651 6.84871 5.96077 7.92445 5.96077 9.24651V17.5294C5.96077 18.8514 7.03651 19.9272 8.35857 19.9272H16.6414C17.9635 19.9272 19.0392 18.8514 19.0392 17.5294V9.24651C19.0392 7.92445 17.9635 6.84871 16.6414 6.84871ZM12.4997 17.6934C10.1261 17.6934 8.19454 15.7619 8.19454 13.3877C8.19454 11.014 10.1261 9.08248 12.4997 9.08248C14.8739 9.08248 16.8055 11.014 16.8055 13.3877C16.8055 15.7619 14.8739 17.6934 12.4997 17.6934ZM16.9437 9.97281C16.382 9.97281 15.925 9.51585 15.925 8.95412C15.925 8.39238 16.382 7.93542 16.9437 7.93542C17.5054 7.93542 17.9624 8.39238 17.9624 8.95412C17.9624 9.51585 17.5054 9.97281 16.9437 9.97281ZM12.4997 10.9021C11.1294 10.9021 10.0136 12.0173 10.0136 13.3877C10.0136 14.7585 11.1294 15.8743 12.4997 15.8743C13.8706 15.8743 14.9858 14.7585 14.9858 13.3877C14.9858 12.0173 13.8706 10.9021 12.4997 10.9021Z" fill="#125E8A"/>
</svg>
