<svg width="208" height="46" viewBox="0 0 208 46" fill="none" xmlns="http://www.w3.org/2000/svg">
<path d="M196.855 0.00158691C190.852 0.00158691 186.011 4.8425 186.011 10.8452C186.011 16.848 190.852 21.6889 196.855 21.6889C202.858 21.6889 207.699 16.848 207.699 10.8452C207.699 4.64886 202.858 0.00158691 196.855 0.00158691Z" fill="url(#paint0_linear_29_782)"/>
<path d="M197.435 24.787C197.048 26.1425 196.854 27.3043 196.467 28.0789L196.273 28.4661C196.08 29.4343 195.305 30.0152 194.337 30.0152H193.756C193.369 30.0152 192.982 29.8216 192.594 29.4343C192.401 29.047 192.207 28.6598 192.207 28.2725L192.788 24.3998C192.788 24.2061 192.982 23.8189 193.175 23.6252C187.56 22.2698 183.493 17.2352 183.493 11.2325C183.493 10.2643 183.687 9.48976 183.687 8.52157H167.809C166.841 8.52157 166.066 7.94066 165.873 6.97248L165.098 3.68066C164.711 2.51884 163.742 1.55066 162.387 1.55066H157.74C156.772 1.55066 156.191 2.3252 156.191 3.09975C156.191 4.06793 156.965 4.64884 157.74 4.64884H160.257C161.225 4.64884 162 5.22975 162.193 6.19793L168.39 31.3707C168.777 32.5325 169.745 33.5007 171.101 33.5007H196.467C197.823 33.5007 198.791 32.7261 199.178 31.3707L201.308 22.8507C199.953 23.4316 198.597 23.6252 197.242 23.8189C197.629 24.3998 197.629 24.5934 197.435 24.787ZM168.971 17.8161C168.777 16.8479 168.39 15.8798 168.196 15.1052L168.002 14.3307C167.809 13.9434 168.002 13.5561 168.196 13.1688C168.39 12.7816 168.971 12.5879 169.358 12.5879H171.101C172.069 12.5879 172.843 13.1688 172.843 14.137L173.424 17.6225C173.424 18.0098 173.424 18.397 173.037 18.7843C172.843 19.1716 172.263 19.3652 171.875 19.3652H170.907C169.939 19.1716 169.164 18.5907 168.971 17.8161ZM174.973 29.4343C174.78 29.8216 174.199 30.0152 173.812 30.0152H173.618C172.65 30.0152 171.875 29.4343 171.682 28.4661L171.488 28.0789C171.294 27.1107 170.907 25.9489 170.52 24.5934C170.326 24.2061 170.52 23.8189 170.713 23.4316C170.907 23.0443 171.488 22.8507 171.875 22.8507H172.843C173.812 22.8507 174.586 23.4316 174.78 24.3998L175.361 28.2725C175.361 28.6598 175.361 29.2407 174.973 29.4343ZM182.138 28.6598C182.138 29.4343 181.557 30.0152 180.783 30.0152C180.008 30.0152 179.233 29.4343 179.233 28.6598L178.653 24.5934C178.653 24.2061 178.653 23.8189 179.04 23.4316C179.233 23.0443 179.814 22.8507 180.202 22.8507H180.783C181.751 22.8507 182.525 23.6252 182.525 24.5934V28.6598H182.138ZM182.138 17.6225C182.138 18.5907 181.363 19.3652 180.395 19.3652H179.04C178.072 19.3652 177.297 18.7843 177.103 17.8161L176.716 14.137C176.716 13.7498 176.716 13.3625 177.103 12.9752C177.491 12.5879 177.878 12.3943 178.265 12.3943H180.589C181.557 12.3943 182.138 13.1688 182.138 14.137V17.6225ZM189.496 24.5934L188.915 28.6598C188.722 29.4343 188.141 30.0152 187.366 30.0152C186.592 30.0152 186.011 29.4343 186.011 28.6598V24.5934C186.011 23.6252 186.785 22.8507 187.753 22.8507H188.334C188.722 22.8507 189.109 23.0443 189.496 23.4316C189.496 23.8189 189.496 24.2061 189.496 24.5934Z" fill="url(#paint1_linear_29_782)"/>
<path d="M196.855 1.55066L199.566 6.97248L205.762 7.94066L201.308 12.2007L202.277 18.2034L196.855 15.4925L191.433 18.2034L192.401 12.2007L188.141 7.94066L194.144 6.97248L196.855 1.55066Z" fill="white"/>
<path d="M172.844 45.8935C175.411 45.8935 177.491 43.7261 177.491 41.0526C177.491 38.379 175.411 36.2117 172.844 36.2117C170.277 36.2117 168.197 38.379 168.197 41.0526C168.197 43.7261 170.277 45.8935 172.844 45.8935Z" fill="url(#paint2_linear_29_782)"/>
<path d="M195.305 45.8935C197.872 45.8935 199.953 43.7261 199.953 41.0526C199.953 38.379 197.872 36.2117 195.305 36.2117C192.739 36.2117 190.658 38.379 190.658 41.0526C190.658 43.7261 192.739 45.8935 195.305 45.8935Z" fill="url(#paint3_linear_29_782)"/>
<path d="M53.1769 36.4052C51.0469 37.9543 47.755 38.5352 43.3014 38.5352H36.9114C35.9432 38.5352 35.1687 38.5352 34.0068 38.5352C33.0387 38.5352 32.0705 38.3416 31.1023 38.1479C30.1341 37.9543 29.1659 37.567 28.3914 37.3734C27.4232 36.9861 26.6487 36.4052 26.0677 35.8243C25.4868 35.2434 24.9059 34.2752 24.5187 33.307C24.1314 32.3388 23.9377 31.177 23.9377 29.6279V7.55334H29.7468V29.4343C29.7468 31.7579 31.8768 32.9197 36.3305 32.9197H44.2696C48.5296 32.9197 50.6596 31.7579 50.6596 29.4343V7.55334H56.4687V29.8215C56.275 32.7261 55.3069 35.0497 53.1769 36.4052Z" fill="#0F0E0E"/>
<path d="M100.23 38.9225V18.5907L87.6435 37.1798C87.2562 37.7607 86.6753 38.3416 86.0944 38.7289C85.5135 39.1161 84.9326 39.3098 84.158 39.3098C82.8026 39.3098 81.6408 38.7289 80.6726 37.3734L68.0862 18.397V38.9225H62.2771V10.8452C62.2771 9.68338 62.6644 8.90883 63.2453 8.32792C63.8262 7.74701 64.6007 7.35974 65.5689 7.35974C66.9244 7.35974 68.0862 7.94065 68.8607 8.90883L84.5453 31.3707L100.036 9.10247C100.811 7.94065 101.779 7.35974 103.134 7.35974C104.103 7.35974 104.877 7.74701 105.458 8.32792C106.039 8.90883 106.426 9.87702 106.426 11.0388V38.7289H100.23V38.9225Z" fill="#0F0E0E"/>
<path d="M111.848 38.7288V7.55334H117.657V38.7288H111.848Z" fill="#0F0E0E"/>
<path d="M157.159 38.9225L152.319 30.4025H134.117L129.469 38.9225H122.499L139.926 9.68335C140.7 8.32789 141.862 7.55334 143.218 7.55334C144.573 7.55334 145.735 8.32789 146.509 9.68335L163.549 38.9225H157.159ZM143.218 15.2988L137.602 24.5934H148.833L143.218 15.2988Z" fill="#0F0E0E"/>
<path d="M18.1285 24.787C18.1285 34.2752 14.643 38.3416 8.44667 39.697C2.44393 40.8588 0.507568 40.8588 0.507568 40.8588V34.4688C2.83121 34.2752 6.5103 33.8879 8.83394 33.1134C10.9639 32.3388 12.513 30.2088 12.513 24.787L12.7067 13.3624V7.55334H18.5158L18.1285 24.787Z" fill="#0F0E0E"/>
<defs>
<linearGradient id="paint0_linear_29_782" x1="186.097" y1="10.7093" x2="207.699" y2="10.7093" gradientUnits="userSpaceOnUse">
<stop stop-color="#EB712A"/>
<stop offset="0.2311" stop-color="#EF8528"/>
<stop offset="0.4715" stop-color="#F29426"/>
<stop offset="0.6242" stop-color="#F39A24"/>
</linearGradient>
<linearGradient id="paint1_linear_29_782" x1="156.352" y1="17.7921" x2="201.626" y2="17.7921" gradientUnits="userSpaceOnUse">
<stop stop-color="#343434"/>
<stop offset="0.5455" stop-color="#696968"/>
<stop offset="1" stop-color="#696968"/>
</linearGradient>
<linearGradient id="paint2_linear_29_782" x1="168.208" y1="41.0623" x2="177.527" y2="41.0623" gradientUnits="userSpaceOnUse">
<stop stop-color="#343434"/>
<stop offset="0.5455" stop-color="#696968"/>
<stop offset="1" stop-color="#696968"/>
</linearGradient>
<linearGradient id="paint3_linear_29_782" x1="190.595" y1="41.0623" x2="199.91" y2="41.0623" gradientUnits="userSpaceOnUse">
<stop stop-color="#343434"/>
<stop offset="0.5455" stop-color="#696968"/>
<stop offset="1" stop-color="#696968"/>
</linearGradient>
</defs>
</svg>
