<svg width="251" height="69" viewBox="0 0 251 69" fill="none" xmlns="http://www.w3.org/2000/svg">
<path d="M63.5502 40.1489V54.4761H51.6108V6.6864H63.5502V30.9201H69.0036L76.5222 18.3031H89.1714L78.9423 35.7281L89.1714 54.5084H76.5222L68.6809 40.1812H63.5502V40.1489Z" fill="#36578B"/>
<path d="M114.083 29.5648C114.083 27.7577 113.179 26.8219 111.34 26.8219H103.144C101.337 26.8219 100.401 27.7255 100.401 29.5648V43.2144C100.401 45.0214 101.304 45.9572 103.144 45.9572H111.34C113.147 45.9572 114.083 45.0537 114.083 43.2144V29.5648ZM126.022 44.247C126.022 47.6674 125.054 50.3457 123.118 52.2818C121.182 54.2179 118.503 55.186 115.083 55.186H99.3682C95.9478 55.186 93.2695 54.2179 91.3334 52.2818C89.3973 50.3457 88.4292 47.6674 88.4292 44.247V28.5322C88.4292 25.1117 89.3973 22.4334 91.3334 20.4973C93.2695 18.5612 95.9478 17.5931 99.3682 17.5931H115.083C118.503 17.5931 121.182 18.5612 123.118 20.4973C125.054 22.4334 126.022 25.1117 126.022 28.5322V44.247Z" fill="#36578B"/>
<path d="M149.578 27.5318C147.158 27.5318 144.447 27.9836 141.382 28.8871V54.5083H129.442V18.303H140.026L140.704 21.7235C142.834 20.3037 145.028 19.2711 147.287 18.6257C149.546 17.9803 151.45 17.6254 152.998 17.6254H156.064C159.162 17.6254 161.646 18.5612 163.518 20.4327C165.39 22.3043 166.325 24.789 166.325 27.8868V54.5083H154.386V29.9197C154.386 29.242 154.16 28.6612 153.708 28.2094C153.257 27.7577 152.676 27.5318 151.998 27.5318H149.578Z" fill="#36578B"/>
<path d="M185.105 43.9242C187.977 43.9242 190.72 43.6983 193.302 43.2466V27.5318H183.75C181.943 27.5318 181.007 28.4353 181.007 30.2746V41.5363C181.007 42.214 181.233 42.7948 181.685 43.2466C182.137 43.6983 182.718 43.9242 183.395 43.9242H185.105ZM193.302 51.7655C188.881 52.669 185.009 53.1207 181.685 53.1207H179.297C176.199 53.1207 173.715 52.185 171.843 50.3134C169.971 48.4418 169.036 45.9571 169.036 42.8593V29.242C169.036 25.8216 170.004 23.1433 171.94 21.2071C173.876 19.271 176.554 18.303 179.975 18.303H205.241V56.5412C205.241 59.639 204.305 62.1237 202.434 63.9952C200.562 65.8668 198.077 66.8026 194.98 66.8026C187.816 66.8026 179.878 66.3509 171.069 65.4473V56.5735C179.749 57.2511 186.364 57.6061 190.881 57.6061C191.559 57.6061 192.14 57.3802 192.592 56.9284C193.043 56.4767 193.269 55.8958 193.269 55.2182V51.7655H193.302Z" fill="#36578B"/>
<path d="M223.699 45.6345C226.119 45.6345 228.83 45.1827 231.895 44.2792V40.1811H221.989C221.311 40.1811 220.73 40.407 220.279 40.8587C219.827 41.3105 219.601 41.8913 219.601 42.569V43.2466C219.601 43.9242 219.827 44.5051 220.279 44.9568C220.73 45.4086 221.311 45.6345 221.989 45.6345H223.699ZM211.05 18.9806C219.375 18.0771 226.894 17.6254 233.573 17.6254C236.671 17.6254 239.156 18.5612 241.027 20.4327C242.899 22.3043 243.835 24.789 243.835 27.8868V54.5083H233.251L232.573 51.0879C230.443 52.5077 228.249 53.5403 225.99 54.1856C223.731 54.831 221.828 55.186 220.279 55.186H217.891C214.793 55.186 212.308 54.2502 210.437 52.3786C208.565 50.507 207.629 48.0223 207.629 44.9246V41.859C207.629 38.7613 208.565 36.2766 210.437 34.405C212.308 32.5334 214.793 31.5976 217.891 31.5976H231.895V28.8548C231.895 28.1772 231.669 27.5963 231.218 27.1446C230.766 26.6928 230.185 26.467 229.507 26.467C226.539 26.467 223.28 26.596 219.698 26.8864C216.116 27.1446 213.244 27.3705 211.05 27.4995V18.9806Z" fill="#36578B"/>
<path d="M208.21 68.3837H203.789V63.7371H208.21V68.3837Z" fill="#36578B"/>
<path d="M216.696 68.642C215.825 68.642 215.018 68.5452 214.276 68.3193C213.534 68.1257 212.921 67.7707 212.372 67.3512C211.824 66.8995 211.437 66.3509 211.146 65.7055C210.856 65.0279 210.694 64.2535 210.694 63.3822C210.694 62.4464 210.856 61.6397 211.178 60.9621C211.501 60.2844 211.921 59.7036 212.501 59.2518C213.05 58.8323 213.663 58.5097 214.373 58.316C215.083 58.1224 215.825 58.0256 216.599 58.0256C217.277 58.0256 217.922 58.0902 218.503 58.2515C219.084 58.4129 219.633 58.6065 220.117 58.8323V61.6074H219.665C219.536 61.5106 219.375 61.3816 219.213 61.2202C219.052 61.0589 218.826 60.9298 218.568 60.8007C218.31 60.6717 218.052 60.5748 217.761 60.478C217.471 60.3812 217.116 60.349 216.729 60.349C215.857 60.349 215.212 60.6071 214.728 61.1557C214.276 61.7042 214.018 62.4464 214.018 63.3822C214.018 64.3503 214.244 65.0924 214.728 65.6087C215.212 66.125 215.89 66.3509 216.761 66.3509C217.18 66.3509 217.535 66.3187 217.858 66.2218C218.181 66.125 218.471 66.0282 218.665 65.8992C218.858 65.7701 219.052 65.641 219.213 65.5119C219.375 65.3829 219.504 65.2538 219.633 65.1247H220.084V67.8675C219.568 68.0934 219.052 68.287 218.503 68.4484C217.955 68.5774 217.342 68.642 216.696 68.642Z" fill="#36578B"/>
<path d="M228.217 65.8024C228.41 65.5442 228.572 65.2216 228.701 64.8666C228.798 64.5117 228.862 63.9954 228.862 63.35C228.862 62.7692 228.798 62.2529 228.701 61.8656C228.604 61.4784 228.443 61.1557 228.249 60.8976C228.055 60.6394 227.829 60.4781 227.571 60.3813C227.313 60.2845 227.023 60.2199 226.7 60.2199C226.377 60.2199 226.119 60.2522 225.861 60.349C225.603 60.4458 225.377 60.6072 225.151 60.8653C224.958 61.0912 224.796 61.4139 224.667 61.8334C224.538 62.2529 224.506 62.7692 224.506 63.3823C224.506 63.9308 224.57 64.4149 224.667 64.8021C224.764 65.2216 224.925 65.5443 225.119 65.7701C225.313 65.996 225.538 66.1896 225.797 66.2864C226.055 66.3832 226.377 66.4478 226.7 66.4478C226.99 66.4478 227.281 66.3832 227.539 66.2864C227.797 66.1896 228.023 66.0283 228.217 65.8024ZM232.218 63.35C232.218 64.9957 231.734 66.3187 230.766 67.2868C229.798 68.2548 228.443 68.7066 226.7 68.7066C224.958 68.7066 223.602 68.2225 222.634 67.2868C221.666 66.3187 221.182 65.028 221.182 63.35C221.182 61.672 221.666 60.3813 222.634 59.4132C223.602 58.4452 224.958 57.9934 226.7 57.9934C228.475 57.9934 229.83 58.4774 230.798 59.4455C231.734 60.3813 232.218 61.672 232.218 63.35Z" fill="#36578B"/>
<path d="M243.995 61.2202V68.3838H240.768V63.3499C240.768 62.8659 240.768 62.4464 240.736 62.0915C240.704 61.7365 240.639 61.4784 240.543 61.2525C240.446 61.0266 240.284 60.8653 240.058 60.7685C239.833 60.6717 239.542 60.6071 239.123 60.6071C238.8 60.6071 238.51 60.6717 238.187 60.8007C237.897 60.9298 237.606 61.0589 237.38 61.2202V68.3838H234.121V58.2838H237.38V59.4132C237.929 58.9614 238.477 58.6387 238.961 58.3806C239.478 58.1224 240.026 58.0256 240.639 58.0256C241.317 58.0256 241.898 58.187 242.382 58.4774C242.898 58.7678 243.285 59.2196 243.576 59.8004C244.221 59.2518 244.834 58.8323 245.447 58.5097C246.06 58.187 246.641 58.0579 247.254 58.0579C248.352 58.0579 249.158 58.3806 249.739 59.026C250.32 59.6713 250.578 60.6071 250.578 61.8333V68.4161H247.319V63.3822C247.319 62.8982 247.319 62.4787 247.287 62.1237C247.254 61.7688 247.19 61.5106 247.093 61.2848C246.996 61.0589 246.835 60.8975 246.609 60.8007C246.383 60.7039 246.06 60.6394 245.673 60.6394C245.415 60.6394 245.157 60.6717 244.899 60.7685C244.705 60.8653 244.382 61.0266 243.995 61.2202Z" fill="#36578B"/>
<path d="M46.7059 9.17092C41.6075 4.10476 35.2828 1.55554 27.6675 1.55554C20.0843 1.55554 13.7274 4.10476 8.66128 9.17092C3.56285 14.2694 1.0459 20.594 1.0459 28.2094C1.0459 35.7602 3.59511 42.0848 8.66128 47.2155C13.7597 52.314 20.0843 54.8632 27.6675 54.8632C35.2506 54.8632 41.6075 52.314 46.7059 47.2478C51.8043 42.1494 54.3213 35.8247 54.3213 28.2094C54.3213 20.594 51.8043 14.2694 46.7059 9.17092Z" fill="#F79517"/>
<path d="M27.6674 2.20094C20.3101 2.20094 14.05 4.71789 9.11294 9.62271C4.17585 14.5598 1.69117 20.7876 1.69117 28.1771C1.69117 35.5344 4.20812 41.7622 9.11294 46.6993C14.05 51.6364 20.2779 54.1533 27.6674 54.1533C35.0569 54.1533 41.2847 51.6364 46.2218 46.7315C51.1589 41.7945 53.6435 35.5666 53.6435 28.1771C53.6435 20.7876 51.1266 14.5598 46.2218 9.62271C41.2847 4.71789 35.0569 2.20094 27.6674 2.20094ZM27.6674 55.5086C19.9229 55.5086 13.3724 52.8626 8.17715 47.6673C3.01419 42.4398 0.368164 35.8893 0.368164 28.2094C0.368164 20.4649 3.01419 13.9144 8.17715 8.71919C13.3724 3.52395 19.9552 0.87793 27.6674 0.87793C35.4118 0.87793 41.9623 3.52395 47.1576 8.68692C52.3528 13.8822 54.9666 20.4327 54.9666 28.1771C54.9666 35.9216 52.3205 42.4721 47.1576 47.6673C41.9946 52.8948 35.4118 55.5086 27.6674 55.5086Z" fill="#36578B"/>
<path d="M13.8562 19.1744C14.8565 18.3354 15.9859 17.9482 17.3412 17.9159C18.6965 17.8836 20.084 18.1418 21.4393 18.6903C22.7946 19.2066 24.1498 20.0134 25.4406 20.9169L26.0537 20.4328C25.247 18.884 23.9885 17.6255 22.5042 16.6574C20.9875 15.6894 19.1482 15.1085 17.2766 15.1408C16.3731 15.1408 15.3405 15.3021 14.4047 15.7216C13.469 16.1411 12.6622 16.7865 12.0491 17.5287C11.436 18.2709 11.0488 19.1421 10.7907 20.0134C10.5648 20.8846 10.4357 21.7559 10.5325 22.6594L11.307 22.7562C12.0491 21.3364 12.8559 20.0134 13.8562 19.1744Z" fill="#36578B"/>
<path d="M31.1851 16.6896C32.379 15.8506 33.6697 15.2698 34.9928 15.0116C36.348 14.7212 37.5097 14.8503 38.6714 15.4311C39.833 16.0119 40.9302 17.1091 41.9305 18.3353L42.6727 18.0771C42.5759 17.1736 42.2532 16.3669 41.8337 15.5602C41.3819 14.7857 40.8011 14.0113 40.0266 13.4304C39.2522 12.8173 38.3164 12.3979 37.3161 12.2042C36.3158 12.0106 35.2832 12.0752 34.4119 12.301C32.5726 12.7205 30.9269 13.6886 29.6684 14.9793C28.4422 16.2701 27.5064 17.7867 27.0547 19.4647L27.7646 19.7874C28.8295 18.5934 29.9589 17.4963 31.1851 16.6896Z" fill="#36578B"/>
<path d="M43.4463 34.5663C42.8978 35.9216 42.0588 37.18 41.123 38.2126C40.639 38.7612 40.1227 39.2452 39.5741 39.6647C39.0255 40.1165 38.4447 40.536 37.8639 40.8909C35.4437 42.343 32.6686 43.182 29.7967 43.6337C26.9894 44.0855 24.0852 44.0532 21.2778 43.4079C19.8903 43.0852 18.5027 42.6334 17.1797 41.9881C15.8567 41.3749 14.566 40.5682 13.4366 39.6324L13.0171 39.9874C13.8883 41.3427 15.0823 42.4075 16.373 43.3756C17.6638 44.3114 19.1158 45.0536 20.6325 45.6021C23.698 46.6993 27.0216 46.8929 30.2162 46.4088C33.3463 45.9248 36.5409 44.86 39.1546 42.8593C41.7684 40.8909 43.7368 37.9222 43.9626 34.6954L43.4463 34.5663Z" fill="#36578B"/>
<path d="M27.1509 25.9829L28.1835 35.4698L28.732 35.4053L27.6994 25.9183L27.1509 25.9829Z" fill="#36578B"/>
</svg>
