<svg width="25" height="26" viewBox="0 0 25 26" fill="none" xmlns="http://www.w3.org/2000/svg">
<rect y="0.887939" width="25" height="25" rx="12.5" fill="#125E8A"/>
<g clip-path="url(#clip0_17_378)">
<path d="M7.96281 8.05127C8.33646 8.05127 8.62902 8.16906 8.8416 8.40355C9.05417 8.63804 9.16813 8.93389 9.18347 9.28836C9.18347 9.63845 9.06403 9.93375 8.82352 10.1737C8.583 10.4131 8.25428 10.5331 7.83845 10.5331H7.82365C7.41768 10.5331 7.09608 10.4131 6.85666 10.1737C6.61998 9.93375 6.5 9.63845 6.5 9.28836C6.5 8.92841 6.63039 8.63256 6.89337 8.39971C7.15635 8.16742 7.51356 8.05127 7.96281 8.05127ZM6.65724 11.516H9.22291V18.7238H6.65724V11.516ZM18.5 14.5912V18.7238H15.9349V14.869C15.9349 14.3786 15.8341 13.9858 15.6335 13.6867C15.4341 13.3903 15.1005 13.2418 14.6293 13.2418C14.2704 13.2418 13.9823 13.3327 13.7675 13.5157C13.5522 13.6976 13.396 13.8987 13.3018 14.1195C13.2711 14.1995 13.252 14.2877 13.2415 14.3857C13.2317 14.4822 13.2273 14.5868 13.2273 14.6969V18.7243H10.6463C10.6572 17.5048 10.6633 16.386 10.6633 15.3714V14.0899V12.9257C10.6633 12.5712 10.6594 12.2688 10.6534 12.0178C10.6501 11.7691 10.6463 11.6009 10.6463 11.516H13.2273V12.5367L13.2131 12.5663H13.2273V12.5367C13.3073 12.4112 13.4097 12.2803 13.5347 12.1428C13.6612 12.0058 13.8124 11.8776 13.9965 11.7593C14.1789 11.642 14.3986 11.5456 14.6561 11.4672C14.9153 11.39 15.21 11.3516 15.5459 11.3516C15.9634 11.3516 16.3534 11.4152 16.7172 11.5428C17.0799 11.6705 17.3917 11.8705 17.6568 12.1433C17.9204 12.4145 18.1269 12.752 18.277 13.1552C18.4266 13.5574 18.5 14.0362 18.5 14.5912Z" fill="#D9E4EA"/>
</g>
<defs>
<clipPath id="clip0_17_378">
<rect width="12" height="12" fill="white" transform="translate(6.5 7.38794)"/>
</clipPath>
</defs>
</svg>
