<svg width="97" height="97" viewBox="0 0 97 97" fill="none" xmlns="http://www.w3.org/2000/svg">
<g clip-path="url(#clip0_132_571)">
<path d="M48.452 0.809082C30.4631 0.809082 15.8287 15.4435 15.8287 33.4324C15.8287 50.7889 45.6053 94.0961 46.8731 95.9319C47.2311 96.4511 47.8214 96.7601 48.452 96.7601C49.0826 96.7601 49.673 96.4511 50.0309 95.9319C51.2987 94.0961 81.0753 50.7889 81.0753 33.4324C81.0753 15.4435 66.441 0.809082 48.452 0.809082ZM48.452 91.4163C42.2152 82.0996 19.6667 47.439 19.6667 33.4324C19.6667 17.5602 32.5798 4.64712 48.452 4.64712C64.3242 4.64712 77.2373 17.5602 77.2373 33.4324C77.2373 47.4353 54.6879 82.0987 48.452 91.4163Z" fill="#C1DBE4"/>
<path d="M48.4521 19.9993C41.0449 19.9993 35.0189 26.0253 35.0189 33.4324C35.0189 40.8398 41.0449 46.8655 48.4521 46.8655C55.8592 46.8655 61.8852 40.8398 61.8852 33.4324C61.8852 26.0253 55.8592 19.9993 48.4521 19.9993ZM48.4521 43.0275C43.1616 43.0275 38.857 38.7228 38.857 33.4324C38.857 28.1422 43.1616 23.8373 48.4521 23.8373C53.7425 23.8373 58.0472 28.1422 58.0472 33.4324C58.0472 38.7228 53.7425 43.0275 48.4521 43.0275Z" fill="#C1DBE4"/>
</g>
<defs>
<clipPath id="clip0_132_571">
<rect width="95.951" height="95.951" fill="white" transform="translate(0.476562 0.809082)"/>
</clipPath>
</defs>
</svg>
