<svg width="740" height="205" viewBox="0 0 740 205" fill="none" xmlns="http://www.w3.org/2000/svg">
<path d="M117.984 142.561C112.012 149.773 104.969 155.295 96.8552 159.126C88.7416 162.845 79.6703 164.705 69.6411 164.705C60.626 164.705 52.2308 163.071 44.4553 159.803C36.7926 156.535 30.144 152.083 24.5096 146.449C18.8752 140.815 14.424 134.166 11.1561 126.503C7.88815 118.728 6.25417 110.389 6.25417 101.487C6.25417 92.5843 7.88815 84.3018 11.1561 76.639C14.424 68.8635 18.8752 62.1586 24.5096 56.5242C30.144 50.8898 36.7926 46.4387 44.4553 43.1707C52.2308 39.9028 60.626 38.2688 69.6411 38.2688C79.3322 38.2688 87.8401 39.9591 95.1648 43.3397C102.602 46.7204 109.194 51.6223 114.942 58.0455L98.8835 73.5964C95.2775 69.427 91.1081 66.1027 86.3752 63.6236C81.755 61.1444 76.2333 59.9049 69.8101 59.9049C64.1757 59.9049 58.8794 60.919 53.9211 62.9474C48.9628 64.8631 44.6244 67.624 40.9057 71.23C37.2997 74.836 34.4261 79.2308 32.2851 84.4144C30.144 89.4854 29.0735 95.1761 29.0735 101.487C29.0735 107.797 30.144 113.544 32.2851 118.728C34.4261 123.799 37.2997 128.137 40.9057 131.743C44.6244 135.349 48.9628 138.167 53.9211 140.195C58.8794 142.111 64.1757 143.068 69.8101 143.068C76.5714 143.068 82.5438 141.716 87.7275 139.012C93.0238 136.194 97.7003 132.25 101.757 127.179L117.984 142.561ZM181.345 153.21H179.992C177.401 156.366 174.245 159.07 170.527 161.324C166.921 163.578 162.244 164.705 156.497 164.705C152.215 164.705 148.158 163.972 144.327 162.507C140.608 161.155 137.34 159.239 134.523 156.76C131.706 154.281 129.508 151.295 127.931 147.801C126.353 144.308 125.564 140.477 125.564 136.307C125.564 132.025 126.409 128.194 128.1 124.813C129.79 121.32 132.156 118.333 135.199 115.854C138.242 113.375 141.791 111.516 145.848 110.276C150.017 108.924 154.525 108.248 159.37 108.248C164.779 108.248 169.231 108.699 172.724 109.6C176.217 110.389 179.091 111.234 181.345 112.136V109.6C181.345 105.205 179.598 101.599 176.105 98.7821C172.611 95.8523 168.273 94.3873 163.089 94.3873C155.426 94.3873 148.947 97.5989 143.651 104.022L127.593 93.0351C136.382 81.9917 148.383 76.47 163.596 76.47C176.443 76.47 186.247 79.5125 193.008 85.5977C199.769 91.5701 203.15 100.472 203.15 112.305V162H181.345V153.21ZM181.345 128.363C178.753 127.123 176.048 126.165 173.231 125.489C170.527 124.7 167.54 124.306 164.272 124.306C158.976 124.306 154.863 125.489 151.933 127.856C149.116 130.109 147.707 132.927 147.707 136.307C147.707 139.688 149.06 142.392 151.764 144.421C154.581 146.449 157.793 147.463 161.399 147.463C164.329 147.463 167.033 146.956 169.512 145.942C171.992 144.815 174.076 143.407 175.767 141.716C177.57 139.913 178.922 137.885 179.823 135.631C180.837 133.265 181.345 130.842 181.345 128.363ZM281.627 152.027H280.274C278.246 155.52 275.091 158.507 270.809 160.986C266.526 163.465 261.23 164.705 254.92 164.705C249.623 164.705 244.552 163.634 239.707 161.493C234.974 159.239 230.748 156.197 227.029 152.365C223.423 148.421 220.55 143.745 218.409 138.336C216.268 132.927 215.197 127.01 215.197 120.587C215.197 114.164 216.268 108.248 218.409 102.839C220.55 97.4299 223.423 92.8097 227.029 88.9783C230.748 85.0342 234.974 81.9917 239.707 79.8506C244.552 77.5968 249.623 76.47 254.92 76.47C261.23 76.47 266.526 77.7095 270.809 80.1887C275.091 82.6678 278.246 85.654 280.274 89.1473H281.627L280.274 77.3151V40.9733H302.418V162H281.627V152.027ZM259.483 144.252C262.413 144.252 265.174 143.745 267.766 142.73C270.471 141.604 272.837 140.026 274.865 137.997C276.894 135.969 278.528 133.49 279.767 130.56C281.007 127.63 281.627 124.306 281.627 120.587C281.627 116.869 281.007 113.544 279.767 110.614C278.528 107.684 276.894 105.205 274.865 103.177C272.837 101.149 270.471 99.6273 267.766 98.6131C265.174 97.4862 262.413 96.9228 259.483 96.9228C256.554 96.9228 253.736 97.4862 251.032 98.6131C248.44 99.74 246.13 101.318 244.102 103.346C242.073 105.374 240.439 107.854 239.2 110.783C237.96 113.713 237.34 116.981 237.34 120.587C237.34 124.193 237.96 127.461 239.2 130.391C240.439 133.321 242.073 135.8 244.102 137.828C246.13 139.857 248.44 141.434 251.032 142.561C253.736 143.688 256.554 144.252 259.483 144.252ZM398.888 142.054C395.057 148.816 389.873 154.281 383.337 158.45C376.914 162.62 369.026 164.705 359.673 164.705C353.362 164.705 347.503 163.634 342.094 161.493C336.797 159.239 332.177 156.14 328.233 152.196C324.289 148.252 321.19 143.632 318.936 138.336C316.795 132.927 315.725 127.01 315.725 120.587C315.725 114.615 316.795 108.98 318.936 103.684C321.077 98.275 324.064 93.5985 327.895 89.6544C331.726 85.5977 336.234 82.3861 341.418 80.0196C346.714 77.6532 352.517 76.47 358.828 76.47C365.476 76.47 371.393 77.5968 376.576 79.8506C381.76 81.9917 386.098 85.0342 389.592 88.9783C393.085 92.8097 395.733 97.3735 397.536 102.67C399.339 107.966 400.241 113.713 400.241 119.911C400.241 120.7 400.241 121.376 400.241 121.939C400.128 122.616 400.072 123.235 400.072 123.799C399.959 124.362 399.903 124.982 399.903 125.658H337.53C337.981 129.039 338.882 131.969 340.234 134.448C341.699 136.814 343.446 138.843 345.474 140.533C347.615 142.111 349.926 143.294 352.405 144.083C354.884 144.759 357.419 145.097 360.011 145.097C365.082 145.097 369.251 143.97 372.519 141.716C375.9 139.35 378.548 136.42 380.464 132.927L398.888 142.054ZM378.774 109.938C378.661 108.473 378.154 106.839 377.252 105.036C376.463 103.233 375.224 101.543 373.534 99.9654C371.956 98.3877 369.928 97.0918 367.448 96.0776C365.082 95.0634 362.208 94.5564 358.828 94.5564C354.095 94.5564 349.926 95.9086 346.32 98.6131C342.713 101.318 340.178 105.093 338.713 109.938H378.774ZM435.173 89.9925H436.526C439.117 85.823 442.611 82.5551 447.006 80.1887C451.4 77.7095 456.415 76.47 462.049 76.47C467.233 76.47 471.797 77.3151 475.741 79.0054C479.685 80.6958 482.897 83.1185 485.376 86.2738C487.968 89.3164 489.883 93.0351 491.123 97.4299C492.475 101.712 493.151 106.501 493.151 111.798V162H471.008V114.502C471.008 108.53 469.656 104.135 466.951 101.318C464.36 98.3877 460.528 96.9228 455.457 96.9228C452.415 96.9228 449.71 97.5989 447.344 98.9512C445.09 100.191 443.118 101.937 441.428 104.191C439.85 106.332 438.61 108.924 437.709 111.967C436.92 114.897 436.526 118.052 436.526 121.432V162H414.383V79.1745H435.173V89.9925ZM590.043 140.871C586.437 147.858 581.366 153.605 574.831 158.112C568.407 162.507 560.35 164.705 550.659 164.705C544.236 164.705 538.32 163.634 532.911 161.493C527.614 159.239 522.994 156.14 519.05 152.196C515.219 148.252 512.176 143.632 509.922 138.336C507.781 132.927 506.711 127.01 506.711 120.587C506.711 114.164 507.781 108.248 509.922 102.839C512.176 97.4299 515.219 92.8097 519.05 88.9783C522.994 85.0342 527.614 81.9917 532.911 79.8506C538.32 77.5968 544.236 76.47 550.659 76.47C560.237 76.47 568.295 78.6674 574.831 83.0622C581.366 87.457 586.156 93.1478 589.198 100.134L568.914 108.586C566.999 104.755 564.52 101.881 561.477 99.9654C558.547 97.937 554.828 96.9228 550.321 96.9228C547.391 96.9228 544.63 97.4862 542.038 98.6131C539.447 99.74 537.136 101.318 535.108 103.346C533.192 105.374 531.671 107.854 530.544 110.783C529.417 113.713 528.854 116.981 528.854 120.587C528.854 124.193 529.417 127.461 530.544 130.391C531.671 133.321 533.192 135.8 535.108 137.828C537.136 139.857 539.447 141.434 542.038 142.561C544.63 143.688 547.391 144.252 550.321 144.252C554.941 144.252 558.829 143.237 561.984 141.209C565.252 139.068 567.844 136.025 569.76 132.081L590.043 140.871ZM681.158 142.054C677.327 148.816 672.143 154.281 665.607 158.45C659.184 162.62 651.296 164.705 641.943 164.705C635.632 164.705 629.772 163.634 624.363 161.493C619.067 159.239 614.447 156.14 610.503 152.196C606.559 148.252 603.46 143.632 601.206 138.336C599.065 132.927 597.994 127.01 597.994 120.587C597.994 114.615 599.065 108.98 601.206 103.684C603.347 98.275 606.333 93.5985 610.165 89.6544C613.996 85.5977 618.504 82.3861 623.687 80.0196C628.984 77.6532 634.787 76.47 641.098 76.47C647.746 76.47 653.662 77.5968 658.846 79.8506C664.03 81.9917 668.368 85.0342 671.861 88.9783C675.355 92.8097 678.003 97.3735 679.806 102.67C681.609 107.966 682.51 113.713 682.51 119.911C682.51 120.7 682.51 121.376 682.51 121.939C682.398 122.616 682.341 123.235 682.341 123.799C682.229 124.362 682.172 124.982 682.172 125.658H619.8C620.25 129.039 621.152 131.969 622.504 134.448C623.969 136.814 625.716 138.843 627.744 140.533C629.885 142.111 632.195 143.294 634.674 144.083C637.153 144.759 639.689 145.097 642.281 145.097C647.352 145.097 651.521 143.97 654.789 141.716C658.17 139.35 660.818 136.42 662.734 132.927L681.158 142.054ZM661.043 109.938C660.931 108.473 660.424 106.839 659.522 105.036C658.733 103.233 657.494 101.543 655.803 99.9654C654.226 98.3877 652.197 97.0918 649.718 96.0776C647.352 95.0634 644.478 94.5564 641.098 94.5564C636.365 94.5564 632.195 95.9086 628.589 98.6131C624.983 101.318 622.448 105.093 620.983 109.938H661.043ZM710.006 163.014C705.949 163.014 702.456 161.606 699.526 158.788C696.709 155.859 695.3 152.365 695.3 148.308C695.3 144.252 696.709 140.815 699.526 137.997C702.456 135.18 705.949 133.772 710.006 133.772C714.063 133.772 717.499 135.18 720.317 137.997C723.134 140.815 724.542 144.252 724.542 148.308C724.542 152.365 723.134 155.859 720.317 158.788C717.499 161.606 714.063 163.014 710.006 163.014Z" fill="url(#paint0_linear_21_495)"/>
<defs>
<linearGradient id="paint0_linear_21_495" x1="130.588" y1="-2.47326e-06" x2="512.361" y2="222.532" gradientUnits="userSpaceOnUse">
<stop stop-color="#125E8A"/>
<stop offset="0.46875" stop-color="#197BBD"/>
<stop offset="0.8125" stop-color="#8A716A"/>
</linearGradient>
</defs>
</svg>
