<?xml version="1.0" encoding="utf-8"?>
<!-- Generator: Adobe Illustrator 20.0.0, SVG Export Plug-In . SVG Version: 6.00 Build 0)  -->
<svg version="1.1" id="Layer_1" xmlns="http://www.w3.org/2000/svg" xmlns:xlink="http://www.w3.org/1999/xlink" x="0px" y="0px"
	 viewBox="0 0 1000 271.6" style="enable-background:new 0 0 1000 271.6;" xml:space="preserve">
<style type="text/css">
	.st0{fill:#E22130;}
	.st1{fill:#231F20;}
</style>
<g>
	<polygon class="st0" points="111.2,0 85.1,80.2 0,80.2 68.7,129.8 42.9,210.4 111.2,160.8 179.8,210.4 153.7,129.8 222,80.2 
		137.3,80.2 	"/>
	<g>
		<path class="st1" d="M460.8,73.1c-5.2-5.2-10.8-9-17.9-11.2c-6.7-2.6-14.6-3.7-23.1-3.7c-8.6,0-16.4,1.5-24.3,4.9
			c-7.8,3.4-14.2,8.2-19.4,13.4l-0.4,0.4c-2.6,3-4.9,6-6.7,9.3c-1.5,3-3,5.6-3.7,7.8c-0.7-1.5-1.9-4.1-3.4-6.7
			c-2.6-4.9-4.9-8.6-6.7-10.1c-5.2-6-11.2-10.1-19-13.4c-7.8-3.4-16-4.9-25.4-4.9c-6,0-14.6,0.7-23.9,5.2
			c-10.8,5.2-19.8,13.4-26.1,25.4V62.7h-8.6v149.6h8.6v-85.1c0-9.7,1.1-17.9,3.4-25.4c2.2-7.5,5.6-13.1,10.1-18.7
			c3.7-5.2,9.3-9.3,15.7-11.9c6.3-3,13.1-4.5,20.1-4.1c8.6,0.4,16,1.9,22.8,4.9c6.3,3,11.6,7.5,16,12.7c3.7,5.2,6.3,9.7,7.8,14.9
			c2.2,6.3,3,13.8,3,24.3v88.1h8.6v-84.3c0-10.4,0.4-19,2.2-26.1c1.9-6.7,4.5-11.9,9.7-18.7c4.5-6,10.1-10.1,17.9-13.1
			c6.3-2.2,13.4-3.7,20.1-3.7c7.5,0,13.8,1.1,19.8,3.4s10.4,5.6,14.6,9.7c5.2,5.2,9,11.6,11.2,19.8c2.6,8.2,3.7,17.5,3.7,29.1v83.9
			h8.6l1.5-84.3c0-12.3-1.5-23.1-4.5-32.1C470.5,86.6,466.7,78.7,460.8,73.1z"/>
		<path class="st1" d="M630.5,100.7c-4.5-10.4-13.1-20.9-24.3-28.4c-13.1-9-28.7-13.4-45.1-13.4c-29.8,0-48.1,13.4-58.6,25
			c-12.7,14.2-20.1,33.6-20.1,53.4s7.5,39.2,20.1,53.4c10.1,11.2,28.7,25,58.6,25c15.3,0,29.1-3.7,41.4-10.8
			c11.6-7.5,20.9-17.2,28-30.2v37.7h8.6V63.1h-8.6V100.7z M625.7,109.3c1.5,4.1,3,8.2,3.7,12.3c1.1,4.5,1.5,9.3,1.5,13.4
			c0.4,4.9,0,9.3-0.7,13.4c-0.7,4.9-1.9,9-3.4,12.7c-4.9,13.8-13.4,25.7-25,33.6c-11.2,8.2-25.4,12.3-39.9,12.3
			c-21.6,0-39.5-7.8-52.6-22c-11.2-12.7-18.3-30.2-18.3-48.5c0-19.8,7.5-37.3,20.1-50.4c13.1-12.7,30.6-20.1,50-20.1
			c14.2,0,28,4.1,39.2,11.2C611.9,85.8,620.8,96.6,625.7,109.3z M631.7,106.3L631.7,106.3L631.7,106.3L631.7,106.3z"/>
		<path class="st1" d="M672,85.4c7.8-7.1,15.7-11.6,23.5-14.9c7.8-3,16.4-4.9,26.9-4.9h0.7c12.7,0,25.7,3.7,36.6,10.1
			c12.7,8.2,22.4,19.4,27.6,33.6l0.4,0.7h9.7l-0.7-1.5c-6-16.8-17.2-30.6-32.1-39.5c-12.3-7.5-27.2-11.2-41.8-11.2
			c-21.6,0-41.4,8.2-56,22.8c-14.6,14.6-22.8,34.7-22.8,56.3c0,20.1,7.8,39.5,20.5,53.7c14.6,16,35.1,24.6,59.7,24.6
			c16,0,31.7-4.9,44.4-13.8s22.4-21.3,28-36.2l0.7-1.5h-9.7l-0.4,0.7c-3.7,10.8-11.6,21.3-22,28.7c-11.9,9.3-27.2,13.8-42.9,13.8
			c-9.3,0-18.3-1.9-26.9-5.2c-8.6-3.7-15.7-8.6-22.4-14.6c-6.7-6.7-11.6-14.2-15.3-23.1c-3.7-8.6-5.6-18.3-5.6-28s2.2-19.8,5.6-28.7
			C660.8,98.9,666,91.4,672,85.4z M772.7,84.7c6.7,6.3,12.3,14.6,16,24.3l0,0C785,99.6,779.4,91.8,772.7,84.7z"/>
		<path class="st1" d="M918.2,62.3h-9.7l-0.4,0.7c0,0.7-14.6,34.7-29.1,69l-28.7,67.5l-27.2-67.5c-17.5-44.8-27.6-68.7-27.6-69
			l-0.4-0.7h-9.7l59.7,148.9l-26.9,60.4h9.7l0.4-0.7c0,0,0.7-1.9,1.9-4.9c4.5-10.4,16.8-39.2,31-71.6c3.7-8.6,7.5-17.5,11.6-26.5
			l35.1-81c6-13.8,9.7-22.8,9.7-23.1L918.2,62.3z"/>
		<path class="st1" d="M985.4,139.5c-8.2-6-18.3-9-28.4-11.2l-1.1-0.4c-11.6-3.4-19-6.7-23.9-10.4c-5.6-4.9-8.6-10.8-9-19.8
			c0-4.1,0.4-8.2,1.9-11.6c1.1-3.7,3.4-6.7,6-9.7c3-3.4,6.7-5.6,10.4-7.5c4.5-1.9,9-2.6,13.8-2.6h0.7c4.5,0,8.6,0.7,11.9,2.2
			c3.7,1.5,7.1,3.7,9.7,6.3s4.9,6,6.3,9.7c1.5,3.7,2.2,7.8,2.2,12.3v1.1h8.6V97c0-10.8-4.1-20.5-10.8-27.6
			c-7.1-7.1-16.8-10.4-28.7-10.4c-10.4,0-20.5,3.4-28,9.3c-8.6,7.1-12.7,17.2-12.7,29.5c0.4,11.6,4.5,20.1,11.9,26.5
			c7.8,6.3,18.3,9.7,28.7,12.3c12.7,3,21.6,7.1,27.2,12.3c6,6,8.6,13.1,9,23.1v1.1c0,4.9-0.7,9.7-2.6,13.4
			c-1.9,4.1-4.1,7.8-7.5,10.8c-3,3.4-7.1,6-11.2,7.8c-4.5,1.9-9.3,2.6-14.2,2.6c-10.8,0-20.5-3.4-27.2-9.7
			c-6.7-6.7-10.1-15.7-10.4-26.5v-1.1l-8.6,0.4v1.9c0,0.4,0,0.7,0,1.1c0,5.2,1.1,10.1,3,14.9c1.9,4.9,4.5,9.3,8.2,12.7
			c4.5,4.5,9.7,8.2,15.7,10.4c6,2.2,12.3,3.7,19.4,3.7c6.3,0,12.3-1.5,17.9-3.7c5.6-2.6,10.4-6,14.6-10.1c3.7-4.1,7.1-9,9-14.2
			c2.2-5.2,3-10.8,2.6-16.8C999.2,156.3,994.3,146.3,985.4,139.5z"/>
		<polygon class="st1" points="913.3,51.1 923.4,44 933.5,51.1 929.4,39.2 939.8,31.7 927.5,31.7 923.4,20.1 919.7,31.7 907.4,31.7 
			917.1,39.2 		"/>
	</g>
</g>
</svg>
