<svg width="120" height="141" viewBox="0 0 120 141" fill="none" xmlns="http://www.w3.org/2000/svg">
<path d="M4.22533 15.6164H15.9058V3.60473C15.9058 1.6715 17.474 0.10498 19.4072 0.10498H89.3734C105.826 0.10498 119.274 13.5531 119.274 30.0058V121.094C119.274 123.027 117.708 124.594 115.774 124.594H104.094V136.605C104.094 138.538 102.526 140.105 100.593 140.105H4.22533C2.29211 140.105 0.725586 138.538 0.725586 136.605V19.1162C0.725586 17.1829 2.29211 15.6164 4.22533 15.6164ZM29.3066 45.7166C24.7033 45.7166 24.7033 38.7171 29.3066 38.7171H75.5113C80.1146 38.7171 80.1146 45.7166 75.5113 45.7166H29.3066ZM29.3066 82.3499C24.7033 82.3499 24.7033 75.3504 29.3066 75.3504H75.5113C80.1146 75.3504 80.1146 82.3499 75.5113 82.3499H29.3066ZM29.3066 64.0332C24.7033 64.0332 24.7033 57.0337 29.3066 57.0337H75.5113C80.1146 57.0337 80.1146 64.0332 75.5113 64.0332H29.3066ZM22.907 15.6164H74.1915C90.6442 15.6164 104.094 29.0645 104.094 45.5172V117.594H112.275V30.0058C112.275 17.4178 101.961 7.10447 89.3734 7.10447H22.907V15.6164ZM24.852 96.4722H79.9675C81.8991 96.4722 83.4673 98.0404 83.4673 99.972V117.793C83.4673 119.727 81.8991 121.295 79.9675 121.295H24.852C22.9188 121.295 21.3523 119.727 21.3523 117.793V99.972C21.3523 98.0404 22.9188 96.4722 24.852 96.4722ZM76.4661 103.472H28.3518V114.294H76.4661V103.472ZM74.1915 22.6159H7.72508V133.105H97.0928V45.5172C97.0928 32.9293 86.7812 22.6159 74.1915 22.6159Z" fill="#125E8A"/>
</svg>
