<svg width="384" height="364" viewBox="0 0 384 364" fill="none" xmlns="http://www.w3.org/2000/svg">
<path d="M380.977 27.8881C379.055 25.8479 376.146 25.0763 373.486 25.8947L19.7947 133.73C17.2445 134.508 15.3184 136.6 14.7551 139.203C14.1917 141.807 15.0783 144.509 17.0768 146.27L118.054 235.619C118.046 235.7 117.64 235.748 117.634 235.831L113.534 294.463C113.345 297.164 115.04 299.779 117.334 301.223C118.374 301.878 119.735 302.262 120.92 302.345C122.341 302.444 123.881 302.134 125.166 301.404L166.362 277.947L252.916 354.25C254.143 355.332 255.685 355.958 257.275 356.07C258.037 356.123 258.816 356.058 259.578 355.867C261.924 355.28 263.834 353.576 264.68 351.308L382.508 35.4898C383.485 32.872 382.892 29.9244 380.977 27.8881ZM128.938 223.873C128.65 224.106 128.41 224.374 128.166 224.638L36.6616 143.95L342.649 50.6584L128.938 223.873ZM129.149 281.792L131.526 247.806L154 267.624L129.149 281.792ZM254.646 336.166L173.895 264.961C173.096 263.657 171.957 262.69 170.654 262.103L139.257 234.418L359.08 56.25L254.646 336.166Z" fill="url(#paint0_linear_1_47)"/>
<defs>
<linearGradient id="paint0_linear_1_47" x1="203.905" y1="13.5474" x2="180.33" y2="350.689" gradientUnits="userSpaceOnUse">
<stop stop-color="#125E8A" stop-opacity="0.6"/>
<stop offset="0.494792" stop-color="#11567D"/>
<stop offset="0.932292" stop-color="#8A716A" stop-opacity="0.74"/>
</linearGradient>
</defs>
</svg>
