<svg width="192" height="141" viewBox="0 0 192 141" fill="none" xmlns="http://www.w3.org/2000/svg">
<g clip-path="url(#clip0_22_499)">
<path d="M47.3419 99.894C37.6611 99.894 29.8419 107.713 29.8419 117.394C29.8419 127.075 37.6611 134.894 47.3419 134.894C57.0228 134.894 64.8419 127.075 64.8419 117.394C64.8419 107.713 57.0228 99.894 47.3419 99.894ZM47.3419 124.022C43.693 124.022 40.6398 120.968 40.6398 117.32C40.6398 113.671 43.693 110.617 47.3419 110.617C50.9909 110.617 54.044 113.671 54.044 117.32C54.044 121.043 51.0653 124.022 47.3419 124.022ZM157.406 99.1493C147.725 99.1493 139.906 106.968 139.906 116.649C139.906 126.33 147.725 134.149 157.406 134.149C167.087 134.149 174.906 126.33 174.906 116.649C174.906 106.968 167.087 99.1493 157.406 99.1493ZM157.406 123.277C153.757 123.277 150.704 120.224 150.704 116.575C150.704 112.926 153.757 109.873 157.406 109.873C161.055 109.873 164.108 112.926 164.108 116.575C164.108 120.298 161.129 123.277 157.406 123.277ZM0.0546875 107.415C0.0546875 110.841 2.81001 113.522 6.16107 113.522H22.9909C23.6611 113.522 24.2568 113 24.4057 112.405C26.3419 101.458 35.8738 93.8621 47.3419 93.8621C58.81 93.8621 68.4164 101.458 70.2781 112.405C70.427 113.075 70.9483 113.522 71.693 113.522H74.1504H97.1611V86.4897H0.0546875V107.415ZM189.278 101.011H185.555V84.628C185.555 79.0429 181.012 74.5004 175.353 74.5004H157.257C156.884 74.5004 156.512 74.277 156.214 74.0536L127.916 46.5004C126.65 45.2344 124.863 44.4898 123.001 44.4153H102.523V113.522H132.98C133.65 113.522 134.246 113 134.395 112.405C136.331 101.458 145.863 93.1174 157.331 93.1174C168.799 93.1174 178.406 101.458 180.267 112.405C180.416 113.075 180.938 113.522 181.682 113.522H184.065C187.714 113.522 190.544 110.617 190.544 107.043V102.351C190.693 101.681 190.023 101.011 189.278 101.011ZM142.736 74.5749H111.906C111.161 74.5749 110.491 73.9046 110.491 73.16V53.5004C110.491 52.7557 111.161 52.0855 111.906 52.0855H122.257C122.629 52.0855 123.001 52.3089 123.374 52.5323L143.853 72.1174C144.523 73.0855 143.927 74.5749 142.736 74.5749Z" fill="#125E8A"/>
<path d="M43.4696 76.4365H13.1611V46.128H24.8526V55.8089H31.7782V46.128H43.4696V76.4365ZM83.0122 76.4365H52.7782V46.128H64.4696V55.8089H71.3952V46.128H83.0867V76.4365H83.0122ZM63.5016 36.8195H33.193V6.51099H44.8845V16.1918H51.8101V6.51099H63.5016V36.8195Z" fill="#125E8A"/>
</g>
<defs>
<clipPath id="clip0_22_499">
<rect width="190.638" height="140" fill="white" transform="translate(0.427246 0.85144)"/>
</clipPath>
</defs>
</svg>
