<svg width="27" height="27" viewBox="0 0 27 27" fill="none" xmlns="http://www.w3.org/2000/svg">
<rect x="24.9391" y="26.7295" width="25" height="25" rx="12.5" transform="rotate(-176 24.9391 26.7295)" fill="#125E8A"/>
<path d="M20.2039 9.51942C19.9813 9.60007 19.7537 9.66536 19.5223 9.71513C19.812 9.43023 20.0417 9.08724 20.194 8.70499C20.2282 8.61932 20.2058 8.52136 20.1378 8.45899C20.0699 8.3966 19.9704 8.38274 19.8879 8.42414C19.3863 8.67613 18.8523 8.8451 18.299 8.92703C17.7877 8.35234 17.0636 7.99499 16.2929 7.9411C14.6662 7.82735 13.2502 9.05821 13.1365 10.6849C13.1275 10.813 13.1267 10.941 13.134 11.0677C11.1278 10.7493 9.32054 9.62594 8.14241 7.95505C8.10042 7.8955 8.03179 7.86017 7.95894 7.86092C7.88608 7.86152 7.81808 7.89784 7.77707 7.95812C7.48434 8.38832 7.31029 8.89161 7.2738 9.41353C7.22409 10.1244 7.43071 10.8165 7.84218 11.3749C7.70915 11.3182 7.58101 11.2499 7.45965 11.171C7.39452 11.1285 7.31175 11.1233 7.24171 11.1572C7.17164 11.1911 7.12443 11.2592 7.1172 11.3367C7.11597 11.3497 7.11505 11.3628 7.11412 11.3761C7.03993 12.4371 7.54419 13.4323 8.38088 14.014C8.30639 14.0013 8.23221 13.9852 8.15872 13.9657C8.08295 13.9457 8.00213 13.9671 7.94626 14.022C7.89031 14.0769 7.86743 14.1573 7.88614 14.2334C8.13875 15.265 8.91889 16.0653 9.90892 16.3619C9.03812 16.8261 8.06495 17.0331 7.06345 16.9631C6.85447 16.9485 6.64516 16.9215 6.44119 16.8828C6.33985 16.8635 6.23794 16.917 6.19633 17.0117C6.15472 17.1065 6.18404 17.2175 6.26706 17.2793C7.49598 18.1942 8.95316 18.7342 10.481 18.8411C13.4846 19.0511 15.4625 17.7661 16.5929 16.6512C18.0025 15.2609 18.8886 13.3523 19.0241 11.4146C19.0298 11.3337 19.0343 11.2519 19.0375 11.1702C19.5799 10.818 20.0563 10.3792 20.4551 9.86451C20.5156 9.78635 20.5173 9.67752 20.459 9.5976C20.4009 9.51756 20.2969 9.48574 20.2039 9.51942Z" fill="#D9E4EA"/>
</svg>
