<svg width="141" height="141" viewBox="0 0 141 141" fill="none" xmlns="http://www.w3.org/2000/svg">
<g clip-path="url(#clip0_26_679)">
<path d="M37.2681 67.0614V140.105H104.225V67.0614H37.2681ZM90.5286 121.844H50.9637C48.4434 121.844 46.3984 119.799 46.3984 117.279C46.3984 114.758 48.4434 112.713 50.9637 112.713H90.5289C93.0492 112.713 95.0942 114.758 95.0942 117.279C95.0942 119.799 93.0489 121.844 90.5286 121.844ZM90.5286 103.583H50.9637C48.4434 103.583 46.3984 101.538 46.3984 99.018C46.3984 96.4977 48.4434 94.4527 50.9637 94.4527H90.5289C93.0492 94.4527 95.0942 96.4977 95.0942 99.018C95.0942 101.538 93.0489 103.583 90.5286 103.583ZM90.5286 85.3224H50.9637C48.4434 85.3224 46.3984 83.2773 46.3984 80.757C46.3984 78.2368 48.4434 76.1917 50.9637 76.1917H90.5289C93.0492 76.1917 95.0942 78.2368 95.0942 80.757C95.0939 83.2773 93.0489 85.3224 90.5286 85.3224Z" fill="#125E8A"/>
<path d="M137.596 21.6324L72.161 0.328144C71.2398 0.0309181 70.2527 0.0309181 69.3315 0.328144L3.89688 21.6324C2.01864 22.2447 0.746338 23.9982 0.746338 25.9749V39.6705C0.746338 42.1908 2.79137 44.2358 5.31164 44.2358H9.87695V135.54C9.87695 138.06 11.922 140.105 14.4423 140.105H28.1379V62.4965C28.1379 59.9762 30.1829 57.9312 32.7032 57.9312H108.79C111.31 57.9312 113.355 59.9762 113.355 62.4965V140.105H127.051C129.571 140.105 131.616 138.06 131.616 135.54V44.2356H136.182C138.702 44.2356 140.747 42.1905 140.747 39.6703V25.9749C140.746 23.9982 139.474 22.2447 137.596 21.6324ZM41.8333 48.8009H32.7029C30.1818 48.8009 28.1376 46.7569 28.1376 44.2356C28.1376 41.7142 30.1816 39.6703 32.7029 39.6703H41.8333C44.3544 39.6703 46.3986 41.7142 46.3986 44.2356C46.3986 46.7569 44.3546 48.8009 41.8333 48.8009ZM75.3115 48.8009H66.1812C63.6601 48.8009 61.6159 46.7569 61.6159 44.2356C61.6159 41.7142 63.6598 39.6703 66.1812 39.6703H75.3115C77.8326 39.6703 79.8769 41.7142 79.8769 44.2356C79.8769 46.7569 77.8326 48.8009 75.3115 48.8009ZM108.79 48.8009H99.6595C97.1384 48.8009 95.0942 46.7569 95.0942 44.2356C95.0942 41.7142 97.1381 39.6703 99.6595 39.6703H108.79C111.311 39.6703 113.355 41.7142 113.355 44.2356C113.355 46.7569 111.311 48.8009 108.79 48.8009Z" fill="#125E8A"/>
</g>
<defs>
<clipPath id="clip0_26_679">
<rect width="140" height="140" fill="white" transform="translate(0.746338 0.10498)"/>
</clipPath>
</defs>
</svg>
