<svg width="97" height="97" viewBox="0 0 97 97" fill="none" xmlns="http://www.w3.org/2000/svg">
<g clip-path="url(#clip0_132_570)">
<path d="M48.5727 0.806763C22.1174 0.806763 0.594849 22.3295 0.594849 48.7846C0.594849 75.2401 22.1174 96.7625 48.5727 96.7625C75.028 96.7625 96.5506 75.2401 96.5506 48.7846C96.5506 22.3295 75.028 0.806763 48.5727 0.806763ZM83.2755 21.6333C88.8142 28.6718 92.2583 37.3987 92.6683 46.9943H71.5828C71.4544 39.7976 70.6116 33.1032 69.1948 27.1513C74.4221 25.7995 79.2045 23.9604 83.2755 21.6333ZM80.7245 18.5764C77.0789 20.5751 72.8334 22.191 68.2118 23.3839C66.0138 15.9164 62.8583 9.8624 59.0744 5.9106C67.4921 7.97308 74.9694 12.4551 80.7245 18.5764ZM29.4018 46.9945C29.5358 40.2776 30.3792 33.6442 31.7623 27.9075C37.1686 29.05 42.964 29.5935 48.8838 29.5935C54.5825 29.5935 60.1708 29.0886 65.4113 28.0245C66.7781 33.732 67.6102 40.2776 67.7436 46.9945L29.4018 46.9945ZM67.7436 50.8327C67.6102 57.5496 66.7728 64.0081 65.3982 69.729C60.0797 68.6286 54.3942 67.9758 48.5857 67.9758C42.7758 67.9758 37.0781 68.6295 31.7484 69.7349C30.3732 64.0122 29.5351 57.5494 29.4016 50.8325L67.7436 50.8325V50.8327ZM48.5727 4.64499C55.0647 4.64499 60.9274 12.5171 64.418 24.2503C59.5012 25.2307 54.2502 25.7553 48.8838 25.7553C43.297 25.7553 37.842 25.1926 32.7616 24.1366C36.2568 12.4667 42.1019 4.64499 48.5727 4.64499ZM38.071 5.91078C34.3124 9.83597 31.1742 15.836 28.9781 23.2345C24.408 22.0107 20.2208 20.3697 16.6328 18.3487C22.3583 12.343 29.7568 7.94741 38.071 5.91078ZM14.068 21.3554C18.083 23.7095 22.8075 25.6441 27.9867 27.0312C26.5479 33.0209 25.6923 39.7978 25.5625 46.9945H4.47712C4.89224 37.3989 8.41468 28.4355 14.068 21.3554ZM13.9734 76.2578C8.37532 69.1972 4.88999 60.4281 4.47712 50.8325H25.5625C25.6914 58.0292 26.5411 64.6552 27.9692 70.6273C22.7668 71.9977 18.0134 73.9177 13.9734 76.2578ZM16.5319 79.1125C20.1471 77.1032 24.3617 75.4736 28.9571 74.2645C31.1541 81.6954 34.3002 87.7209 38.071 91.6587C29.7077 89.6099 22.2715 85.173 16.5319 79.1125ZM48.5727 92.9243C42.092 92.9243 36.2381 85.079 32.7451 73.3789C37.7496 72.3585 43.1081 71.814 48.5858 71.814C54.0617 71.814 59.409 72.3573 64.4021 73.3729C60.9092 85.0762 55.0548 92.9243 48.5727 92.9243ZM59.0744 91.6589C62.8467 87.7194 65.9943 81.6909 68.1908 74.2555C72.7881 75.4633 77.003 77.0927 80.6219 79.1037C74.8809 85.1687 67.4419 89.6088 59.0744 91.6589ZM83.1824 76.2128C79.1367 73.8718 74.3815 72.0185 69.1779 70.65C70.6051 64.6803 71.4541 58.0294 71.583 50.8327H92.6685C92.256 60.4283 88.7748 69.1544 83.1824 76.2128Z" fill="#C1DBE4"/>
</g>
<defs>
<clipPath id="clip0_132_570">
<rect width="95.9558" height="95.9558" fill="white" transform="translate(0.594849 0.806763)"/>
</clipPath>
</defs>
</svg>
